<?xml version="1.0" standalone="no"?>
<!DOCTYPE svg PUBLIC "-//W3C//DTD SVG 1.1//EN" "http://www.w3.org/Graphics/SVG/1.1/DTD/svg11.dtd" >
<svg xmlns="http://www.w3.org/2000/svg">
<metadata></metadata>
<defs>
<font id="freesetcitalic" horiz-adv-x="1257" >
<font-face units-per-em="2048" ascent="1475" descent="-573" />
<missing-glyph horiz-adv-x="477" />
<glyph horiz-adv-x="2048" />
<glyph horiz-adv-x="2048" />
<glyph unicode="&#xd;" horiz-adv-x="2048" />
<glyph unicode=" "  horiz-adv-x="477" />
<glyph unicode="&#x09;" horiz-adv-x="477" />
<glyph unicode="&#xa0;" horiz-adv-x="477" />
<glyph unicode="!" horiz-adv-x="571" d="M205 0l35 176h168l-35 -176h-168zM297 358l192 1076h168l-241 -1076h-119z" />
<glyph unicode="&#x22;" horiz-adv-x="673" d="M367 1079l26 355h195l-117 -355h-104zM641 1079l27 355h194l-117 -355h-104z" />
<glyph unicode="#" horiz-adv-x="1325" d="M199 410l43 118h231l152 406h-232l45 119h232l118 323h95l-119 -323h336l119 317l94 6l-119 -323h231l-45 -119h-231l-152 -406h232l-43 -118h-232l-118 -324h-95l119 324h-336l-118 -324h-95l119 324h-231zM567 528h336l152 406h-336z" />
<glyph unicode="$" d="M219 51l41 133q161 -81 332 -78l119 584q-156 76 -226 158q-67 79 -67 176q0 92 41 178.5t123 143.5q111 82 280 96l35 168h90l-33 -164q154 0 303 -51l-45 -127q-131 61 -282 61l-109 -532q160 -84 230 -154q84 -84 84 -199q0 -84 -39.5 -165t-104.5 -144 q-137 -131 -334 -141l-32 -170h-90l32 164q-182 -6 -348 63zM563 1057q0 -71 58 -129q27 -24 63.5 -47.5t56.5 -32.5l97 475q-93 -14 -156 -55q-119 -71 -119 -211zM682 115q169 37 242 133q61 75 61 166q0 95 -88 164q-3 2 -17 11.5t-37 23t-52 28.5z" />
<glyph unicode="%" horiz-adv-x="1808" d="M254 969q0 101 37.5 194.5t101.5 161.5q115 121 291 121q141 0 213 -94q59 -75 59 -189q0 -178 -104 -313q-127 -170 -328 -170q-129 0 -202 84q-68 76 -68 205zM317 55l1289 1391l67 -68l-1286 -1390zM383 961q0 -79 31 -123q39 -56 131 -56q108 0 184 82q48 53 73 137 t25 160q0 82 -36 127q-44 55 -127 55q-110 0 -183 -81q-25 -27 -43.5 -66t-25.5 -64t-17 -69q-12 -70 -12 -102zM1040 276q0 101 38 195t102 162q115 121 290 121q140 0 213 -95q60 -77 60 -188q0 -177 -105 -313q-127 -170 -327 -170q-130 0 -203 84q-68 76 -68 204z M1169 268q0 -79 31 -123q38 -55 131 -55q109 0 185 82q48 53 73 137t25 160q0 80 -37 127q-44 55 -125 55q-110 0 -184 -82q-25 -27 -43.5 -65.5t-25.5 -64t-17 -68.5q-13 -76 -13 -103z" />
<glyph unicode="&#x26;" horiz-adv-x="1499" d="M219 328q0 188 154 327q53 47 131.5 89t157.5 67q-47 54 -71.5 87t-47.5 87t-23 107q0 81 40.5 156.5t119.5 127.5q113 74 272 74q140 0 217 -59q95 -76 95 -199q0 -73 -33 -137.5t-80 -108t-109 -79.5t-107.5 -54.5t-88.5 -30.5l301 -434q71 88 131 217q49 111 78 232 h135q-39 -143 -102 -281q-70 -149 -179 -264l179 -252h-177l-106 158q-198 -174 -477 -174q-194 0 -297 90q-50 44 -81.5 110t-31.5 144zM365 332q0 -111 86 -176q75 -56 196 -56q223 0 402 152l-338 479q-69 -24 -140 -67t-112 -89q-94 -104 -94 -243zM664 1110 q0 -92 67 -176l57 -74q113 35 220 111q118 89 118 203q0 76 -49 116q-49 43 -143 43q-111 0 -182 -51q-88 -62 -88 -172z" />
<glyph unicode="'" horiz-adv-x="399" d="M367 1079l26 355h195l-117 -355h-104z" />
<glyph unicode="(" horiz-adv-x="864" d="M330 485q0 149 33.5 280.5t99.5 268.5q63 132 147 251.5t262 336.5h117q-74 -91 -157.5 -210.5t-139.5 -213.5q-71 -120 -117 -227.5t-67 -200t-28 -161t-7 -148.5q0 -41 1.5 -79.5t3.5 -63.5t6.5 -59.5t7 -48.5t8.5 -50t8 -45q32 -158 88 -318h-100q-70 149 -113 303 q-53 188 -53 385z" />
<glyph unicode=")" horiz-adv-x="864" d="M186 -203q202 270 283 428q123 227 167 389t44 330q0 160 -33 322q-40 180 -112 356h116q71 -177 123 -334q51 -174 51 -360q0 -70 -8.5 -137.5t-31.5 -158.5t-72 -199.5t-121 -225.5q-119 -191 -305 -410h-101z" />
<glyph unicode="*" horiz-adv-x="1030" d="M352 924l277 135l2 4l-223 133l77 100l209 -147l4 2l47 283h117l-61 -281l2 -4l268 147l39 -104l-279 -133l3 -2l221 -133l-78 -101l-211 152l-2 -4l-45 -285h-119l64 279l-5 4l-260 -150z" />
<glyph unicode="+" horiz-adv-x="1525" d="M281 674v114h573v574h115v-574h573v-114h-573v-574h-115v574h-573z" />
<glyph unicode="," horiz-adv-x="641" d="M121 -264l203 446h180l-242 -446h-141z" />
<glyph unicode="-" horiz-adv-x="860" d="M305 492l23 108h450l-22 -108h-451z" />
<glyph unicode="." horiz-adv-x="577" d="M205 0l35 176h168l-35 -176h-168z" />
<glyph unicode="/" horiz-adv-x="972" d="M-143 -483l1222 1953l82 -36l-1222 -1954z" />
<glyph unicode="0" d="M274 406q0 162 33 311q75 397 240 573q81 88 172.5 124t208.5 36q205 0 303 -123q84 -104 84 -295q0 -204 -66 -459.5t-170 -386.5q-160 -202 -424 -202q-189 0 -290 120q-91 111 -91 302zM420 385q0 -143 63 -211q65 -74 187 -74q95 0 167 38.5t132 127.5 q89 126 145.5 370t56.5 394q0 159 -69 234q-60 69 -182 69q-99 0 -170 -42.5t-129 -123.5q-98 -135 -162 -450q-39 -185 -39 -332z" />
<glyph unicode="1" d="M512 1174l375 260h129l-291 -1434h-135l260 1276l-281 -197z" />
<glyph unicode="2" d="M195 0l24 125q140 114 324.5 280.5t279.5 266.5q43 46 71.5 77.5t69.5 84.5t65.5 97t42.5 99.5t18 106.5q0 92 -64 151q-57 45 -178 45q-164 0 -338 -82v117q174 82 354 82q87 0 154.5 -19t107.5 -49t65.5 -71t34.5 -80t9 -82q0 -53 -13.5 -107t-32.5 -99t-54 -97 t-62.5 -87.5t-74 -85.5t-72.5 -75.5t-74 -71.5q-234 -224 -475 -407l-2 -4l710 2l-24 -117h-866z" />
<glyph unicode="3" d="M152 49l45 125q147 -74 305 -74q230 0 358 119q107 99 107 244q0 100 -66 162q-73 61 -205 61h-211l25 117h209q88 0 164.5 33.5t126.5 87.5q36 38 59 92.5t23 107.5q0 86 -64 146q-68 63 -205 63q-191 0 -356 -71l14 124q174 64 361 64q193 0 286 -84q50 -40 76.5 -98.5 t26.5 -120.5q0 -58 -21.5 -122t-62.5 -116q-45 -57 -114.5 -98t-145.5 -61v-7q94 -14 160 -84q65 -67 65 -186q0 -213 -162 -350q-157 -139 -450 -139q-185 0 -348 65z" />
<glyph unicode="4" d="M190 342l25 123l848 969h192l-196 -975h219l-25 -117h-219l-69 -342h-136l70 342h-709zM358 457l111 2h455l147 725l29 127h-6l-90 -117l-564 -645l-82 -88v-4z" />
<glyph unicode="5" d="M248 41l28 127q146 -68 302 -68q103 0 181.5 27t147.5 96q125 125 125 289q0 130 -90 195q-71 57 -250 57q-153 0 -301 -37l144 707h765l-22 -117h-631l-94 -457q89 21 190 21q207 0 314 -88q49 -38 85 -108.5t36 -164.5q0 -251 -207 -409q-165 -127 -410 -127 q-164 0 -313 57z" />
<glyph unicode="6" d="M281 395q0 120 29 271.5t77 271.5q106 269 297 401q166 111 403 111q110 0 265 -31l-37 -121q-99 35 -232 35q-118 0 -204.5 -29.5t-169.5 -101.5q-166 -146 -238 -454l-10 -46h2q75 101 180 152q104 51 205 51q184 0 280 -102q95 -101 95 -258q0 -120 -49.5 -231.5 t-131.5 -192.5q-78 -75 -169.5 -106t-206.5 -31q-158 0 -256 86q-129 117 -129 325zM426 354q0 -112 76 -188q68 -66 176 -66q90 0 171.5 41t135.5 113q43 58 67.5 136.5t24.5 146.5q0 109 -65 178q-70 73 -193 73q-29 0 -61.5 -5.5t-79 -22t-93.5 -55t-83 -95.5 q-76 -119 -76 -256z" />
<glyph unicode="7" d="M362 0l832 1317h-737l22 117h881l-25 -123l-819 -1311h-154z" />
<glyph unicode="8" d="M209 309q0 181 178 312q107 77 252 118v6q-47 21 -94 55t-76 74q-57 75 -57 177q0 79 37.5 159t119.5 140q136 100 334 100q194 0 287 -82q94 -78 94 -207q0 -142 -115 -260q-95 -101 -258 -164v-2q107 -42 170 -90q59 -46 84 -100t25 -129q0 -152 -123 -275 q-160 -157 -424 -157q-182 0 -299 77q-135 89 -135 248zM356 324q0 -91 66 -152q87 -72 233 -72q144 0 252 70q67 46 102 108t35 125q0 90 -73 154q-37 33 -106 67.5t-128 53.5q-135 -42 -233 -107q-148 -98 -148 -247zM557 1036q0 -28 7 -52.5t29.5 -58.5t74.5 -69t131 -68 q72 30 150.5 81t117.5 98q72 82 72 186q0 77 -58 131q-58 49 -172 49q-176 0 -268 -92q-84 -84 -84 -205z" />
<glyph unicode="9" d="M217 14l37 121q106 -35 225 -35q111 0 202.5 27.5t178.5 103.5q182 163 244 490h-6q-69 -96 -170 -144.5t-207 -48.5q-178 0 -279 105q-96 104 -96 250q0 125 49 239t131 191q143 137 367 137q186 0 290.5 -106t104.5 -306q0 -190 -59 -399q-69 -247 -180 -389 q-111 -148 -277 -217q-116 -49 -299 -49q-117 0 -256 30zM492 897q0 -117 63 -180q68 -72 186 -72q86 0 174 40.5t152 137.5q76 110 76 250q0 129 -78 197q-72 63 -178 63q-76 0 -146 -31t-120 -81q-60 -60 -94.5 -148.5t-34.5 -175.5z" />
<glyph unicode=":" horiz-adv-x="577" d="M205 0l35 176h168l-35 -176h-168zM383 874l35 177h168l-35 -177h-168z" />
<glyph unicode=";" horiz-adv-x="641" d="M121 -264l203 446h180l-242 -446h-141zM449 874l34 177h168l-35 -177h-167z" />
<glyph unicode="&#x3c;" horiz-adv-x="1251" d="M217 723l1178 659l-23 -116l-962 -543l741 -543l-25 -117z" />
<glyph unicode="=" horiz-adv-x="1447" d="M242 487v115h1261v-115h-1261zM242 860v115h1261v-115h-1261z" />
<glyph unicode="&#x3e;" horiz-adv-x="1255" d="M133 63l25 117l962 543l-741 543l22 116l912 -659z" />
<glyph unicode="?" horiz-adv-x="905" d="M301 0l35 176h168l-35 -176h-168zM352 1280l27 127q131 43 270 43q178 0 281 -78q98 -82 98 -219q0 -106 -70 -213q-26 -40 -63.5 -83t-62 -66t-79 -71.5t-69.5 -62.5q-68 -61 -110 -115t-58 -122l-12 -62h-117l12 62q10 50 31 95t57 88t64.5 72.5t77.5 74.5q58 52 82 75 t61.5 66t61.5 84q49 85 49 162q0 100 -72 151q-59 45 -180 45q-146 0 -279 -53z" />
<glyph unicode="@" horiz-adv-x="1632" d="M236 692q0 312 233 541q225 217 575 217q292 0 472 -160q80 -72 126 -161t58 -158t12 -152q0 -215 -92 -354q-62 -92 -143 -135t-164 -43q-87 0 -137 51t-33 131h-4q-49 -75 -126 -128.5t-173 -53.5q-127 0 -197 78q-86 86 -86 239q0 252 160 412q59 56 123 85t149 29 q52 0 93 -13.5t67 -37.5t41.5 -47t28.5 -53l24 137h119l-107 -614q-11 -54 5 -82.5t67 -28.5q59 0 119 44.5t102 117.5q62 115 62 262q0 115 -43 216.5t-119 174.5q-77 73 -186.5 111.5t-223.5 38.5q-128 0 -258.5 -50t-226.5 -141q-93 -91 -144 -215.5t-51 -253.5 q0 -147 53.5 -266.5t143.5 -196.5q78 -70 195 -111.5t264 -41.5q153 0 348 61v-100q-189 -64 -363 -64q-153 0 -294.5 47.5t-247.5 143.5q-105 95 -163 230.5t-58 293.5zM676 612q0 -91 37 -147q52 -70 145 -70q139 0 232 135q37 54 57.5 122.5t23.5 98.5t3 50q0 82 -29 131 q-53 90 -154 90q-64 0 -125.5 -34t-107.5 -99q-82 -110 -82 -277z" />
<glyph unicode="A" horiz-adv-x="1376" d="M31 0l860 1434h176l279 -1434h-142l-78 395h-708l-238 -395h-149zM487 512h619l-127 653l-21 135h-4l-73 -135z" />
<glyph unicode="B" horiz-adv-x="1185" d="M205 0l291 1434h360q42 0 75 -3t76.5 -12t83 -31t70.5 -55q70 -70 70 -200q0 -104 -49 -191q-39 -66 -111 -119t-170 -75v-5q106 -19 172 -102q62 -82 62 -192q0 -111 -51 -202t-132 -149q-135 -98 -366 -98h-381zM365 117h217q91 0 166 18.5t137 73.5q104 97 104 242 q0 102 -57 159q-72 72 -221 72h-232zM502 799h229q111 0 205 57q61 40 105 114.5t44 159.5q0 87 -61 136q-62 51 -182 51h-234z" />
<glyph unicode="C" horiz-adv-x="1255" d="M250 578q0 151 51.5 298t144.5 263q251 311 697 311q172 0 321 -53l-37 -123q-145 59 -286 59q-136 0 -277.5 -56.5t-247.5 -162.5q-99 -102 -160 -245t-61 -302q0 -215 135 -350q125 -117 338 -117q186 0 369 68l-27 -129q-167 -55 -352 -55q-293 0 -450 157 q-71 71 -114.5 182t-43.5 255z" />
<glyph unicode="D" horiz-adv-x="1417" d="M205 0l291 1434h350q59 0 107.5 -3.5t111.5 -13.5t120 -34t103 -60q176 -137 176 -420q0 -188 -61 -356t-172 -287q-248 -260 -676 -260h-350zM365 117h200q29 0 57.5 1.5t88.5 12t114 28t122.5 54.5t124.5 87t110.5 129.5t89.5 178.5q47 128 47 269q0 214 -111 325 q-40 40 -87.5 64.5t-105 35t-99.5 13t-107 2.5h-201z" />
<glyph unicode="E" horiz-adv-x="1042" d="M205 0l291 1434h696l-23 -117h-561l-106 -518h534l-22 -117h-535l-114 -565h600l-25 -117h-735z" />
<glyph unicode="F" horiz-adv-x="972" d="M205 0l291 1434h686l-23 -117h-551l-106 -518h520l-23 -117h-520l-139 -682h-135z" />
<glyph unicode="G" horiz-adv-x="1466" d="M248 575q0 182 78.5 360.5t228.5 307.5q130 113 268.5 160t311.5 47q211 0 397 -78l-45 -127q-170 88 -346 88q-154 0 -297 -63.5t-252 -188.5q-96 -108 -147.5 -244.5t-51.5 -269.5q0 -94 32.5 -181.5t92.5 -149.5q66 -66 168.5 -101t226.5 -35q148 0 285 50l98 483 h-348l23 117h483l-139 -687q-212 -79 -432 -79q-292 0 -443 137q-85 73 -138.5 190.5t-53.5 263.5z" />
<glyph unicode="H" horiz-adv-x="1425" d="M205 0l291 1434h135l-127 -633h745l127 633h135l-290 -1434h-136l140 684h-746l-139 -684h-135z" />
<glyph unicode="I" horiz-adv-x="544" d="M205 0l291 1434h135l-291 -1434h-135z" />
<glyph unicode="J" horiz-adv-x="718" d="M31 4l37 119q64 -23 125 -23q110 0 178 76q57 64 82 182l217 1076h135l-221 -1090q-43 -209 -164 -295q-90 -67 -236 -67q-70 0 -153 22z" />
<glyph unicode="K" horiz-adv-x="1210" d="M205 0l291 1434h135l-133 -662h2l774 662h176l-817 -691l608 -743h-178l-547 686l-27 39l-2 -2l-147 -723h-135z" />
<glyph unicode="L" horiz-adv-x="966" d="M205 0l291 1434h135l-266 -1317h585l-24 -117h-721z" />
<glyph unicode="M" horiz-adv-x="1916" d="M205 0l291 1434h211l251 -1115l21 -190h8l98 190l703 1115h215l-291 -1434h-135l225 1110l45 195h-8l-108 -189l-703 -1116h-139l-248 1116l-31 189h-8l-262 -1305h-135z" />
<glyph unicode="N" horiz-adv-x="1480" d="M205 0l291 1434h174l463 -1160l36 -131h5l258 1291h135l-291 -1434h-174l-457 1137l-45 153h-6l-25 -166l-229 -1124h-135z" />
<glyph unicode="O" horiz-adv-x="1531" d="M244 547q0 185 62.5 357.5t182.5 303.5q228 242 562 242q263 0 395.5 -149.5t132.5 -411.5q0 -393 -240 -658q-230 -247 -565 -247q-267 0 -407 170q-123 148 -123 393zM389 526q0 -184 86 -290q41 -54 118 -95t189 -41q145 0 282.5 78.5t229.5 218.5q140 216 140 512 q0 182 -86 289q-112 135 -308 135q-142 0 -276.5 -74.5t-233.5 -222.5q-15 -20 -34.5 -58.5t-45.5 -103.5t-43.5 -158t-17.5 -190z" />
<glyph unicode="P" horiz-adv-x="1089" d="M205 0l291 1434h362q195 0 291 -115q68 -84 68 -211q0 -182 -111 -322q-144 -180 -395 -180h-248l-123 -606h-135zM487 723h211q190 0 295 123q39 48 62.5 115.5t23.5 132.5q0 97 -55 155q-62 68 -205 68h-211z" />
<glyph unicode="Q" horiz-adv-x="1531" d="M244 547q0 184 62.5 356.5t182.5 304.5q113 122 260 182t298 60q132 0 225 -37q81 -31 141 -84.5t90.5 -108t49 -122.5t22.5 -113.5t4 -95.5q0 -123 -24 -233.5t-59 -189t-88 -148.5t-97.5 -112.5t-101 -81.5t-84.5 -54t-62 -31l268 -305h-188l-236 260q-61 -10 -139 -10 q-259 0 -401 170q-123 145 -123 393zM389 526q0 -185 86 -290q41 -54 118 -95t189 -41q149 0 284 77.5t228 219.5q140 211 140 498q0 86 -12.5 151t-51.5 125q-47 70 -129.5 116t-200.5 46q-141 0 -275.5 -74.5t-234.5 -222.5q-68 -104 -104.5 -236.5t-36.5 -273.5z" />
<glyph unicode="R" horiz-adv-x="1234" d="M205 0l291 1434h358q192 0 289 -86q88 -77 88 -234q0 -153 -96 -256q-93 -103 -258 -141q54 -19 81 -62q8 -12 13.5 -23t10 -23.5t6.5 -20t5.5 -23.5t5.5 -22l131 -543h-139l-127 530q-15 74 -57 103t-123 29h-209l-135 -662h-135zM498 778h198q96 0 171.5 35.5 t125.5 85.5q94 94 94 219q0 84 -45 131q-31 33 -83 50.5t-107 17.5h-244z" />
<glyph unicode="S" horiz-adv-x="1015" d="M113 47l41 133q157 -80 309 -80q76 0 151.5 24t130.5 69q52 43 83.5 103t31.5 124q0 87 -74 155q-41 38 -190 125q-97 54 -138 89q-28 23 -52 51q-42 46 -63 90t-21 106q0 96 47 186t131 146q124 82 340 82q168 0 311 -51l-45 -127q-131 61 -281 61q-176 0 -270 -82 q-88 -84 -88 -196q0 -79 59 -135q32 -32 185 -125q55 -32 83.5 -50t69.5 -49.5t68 -62.5q74 -85 74 -199q0 -101 -51.5 -193t-129.5 -151q-142 -106 -379 -106q-173 0 -333 63z" />
<glyph unicode="T" horiz-adv-x="1056" d="M299 1317l23 117h995l-23 -117h-430l-268 -1317h-135l268 1317h-430z" />
<glyph unicode="U" horiz-adv-x="1468" d="M301 373q0 60 10 104l195 957h135l-192 -953q-13 -63 -13 -110q0 -118 74 -189q91 -82 252 -82q153 0 276 84q82 57 125.5 129t63.5 168l192 953h135l-194 -957q-29 -136 -85.5 -231t-168.5 -166q-153 -96 -361 -96q-205 0 -319 100q-125 107 -125 289z" />
<glyph unicode="V" horiz-adv-x="1333" d="M332 1434h143l217 -1139l10 -166h5l84 166l651 1139h141l-823 -1434h-152z" />
<glyph unicode="W" horiz-adv-x="1980" d="M332 1434h141l107 -1160l6 -157h4l53 159l557 1158h158l106 -1160l6 -157h5l63 159l557 1158h135l-692 -1434h-170l-115 1090l-10 159h-6l-584 -1249h-170z" />
<glyph unicode="X" horiz-adv-x="1300" d="M41 0l672 760l-361 674h168l264 -519l29 -67h4l49 67l465 519h168l-616 -674l383 -760h-162l-264 526l-60 138h-4l-104 -144l-463 -520h-168z" />
<glyph unicode="Y" horiz-adv-x="1267" d="M311 1434h154l270 -635l33 -84l600 719h170l-725 -836l-121 -598h-135l121 598z" />
<glyph unicode="Z" horiz-adv-x="1150" d="M102 0l27 127l1016 1190h-758l23 117h899l-27 -138l-1001 -1177v-4l792 2l-24 -117h-947z" />
<glyph unicode="[" horiz-adv-x="675" d="M113 -449l383 1883h368l-22 -117h-226l-335 -1649h225l-25 -117h-368z" />
<glyph unicode="\" horiz-adv-x="1243" d="M455 1434l98 36l428 -1953l-98 -37z" />
<glyph unicode="]" horiz-adv-x="675" d="M10 -449l25 117h225l336 1649h-225l22 117h369l-383 -1883h-369z" />
<glyph unicode="^" horiz-adv-x="1081" d="M295 887l543 575l309 -575h-109l-227 422l-399 -422h-117z" />
<glyph unicode="_" horiz-adv-x="1187" d="M0 -350h1188v-99h-1188v99z" />
<glyph unicode="`" horiz-adv-x="696" d="M479 1548h187l127 -272h-99z" />
<glyph unicode="a" horiz-adv-x="1067" d="M150 238q0 90 45 171t139 138t216 75.5t275 18.5h78l6 37q10 50 13 83q1 8 1 16q0 27 -8 59q-10 42 -38 71q-51 51 -156 51q-171 0 -326 -79l25 122q163 66 317 66q155 0 240 -82q74 -74 74 -198q0 -51 -13 -111l-90 -447l-41 -229h-114l36 178h-4q-70 -92 -145 -135 q-100 -59 -240 -59q-139 0 -213 65q-77 73 -77 189zM295 242q0 -67 45 -109q43 -41 133 -41q87 0 151.5 28t120.5 89q54 57 78 113.5t41 134.5l17 75h-117q-121 0 -201.5 -14t-146.5 -57q-121 -78 -121 -219z" />
<glyph unicode="b" horiz-adv-x="1161" d="M164 0l49 203l276 1358h129l-141 -699q140 205 365 205q172 0 268 -121q82 -109 82 -282q0 -139 -45.5 -272t-128.5 -230q-158 -178 -375 -178q-17 0 -34.5 2t-50.5 8t-63.5 22t-62 40t-56.5 66t-38 95h-6l-47 -217h-121zM395 393q0 -138 70 -221q64 -80 174 -80 q77 0 159.5 46t149.5 147q54 83 81.5 185t27.5 196q0 117 -56 198q-67 94 -190 94q-81 0 -159 -46.5t-136 -125.5q-55 -75 -88 -180.5t-33 -212.5z" />
<glyph unicode="c" horiz-adv-x="950" d="M193 414q0 138 52 261.5t142 213.5q175 178 447 178q128 0 256 -41l-29 -115q-107 47 -227 47q-209 0 -351 -151q-73 -79 -114 -183.5t-41 -215.5q0 -147 84 -226q90 -90 254 -90q120 0 237 43l-10 -110q-115 -41 -244 -41q-257 0 -381 168q-75 106 -75 262z" />
<glyph unicode="d" horiz-adv-x="1159" d="M182 373q0 298 162 497q156 197 385 197q131 0 213 -72q65 -61 92 -133l142 699h129l-277 -1358l-33 -203h-121l44 217h-7q-70 -110 -172 -172q-99 -61 -215 -61q-153 0 -241 88q-101 101 -101 301zM315 367q0 -123 43 -185q61 -90 183 -90q25 0 50 3t65 16.5t76 35.5 t78.5 65t76.5 101q90 155 90 344q0 127 -51 205q-72 96 -193 96q-81 0 -163 -47.5t-146 -146.5q-109 -168 -109 -397z" />
<glyph unicode="e" horiz-adv-x="1042" d="M182 410q0 127 42 248t126 216q169 193 410 193q162 0 250 -88q92 -89 93 -255q0 -75 -20 -167l-14 -70h-741q-11 -51 -11 -100q1 -38 7 -75q14 -85 61 -138q72 -82 223 -82q174 0 316 68l-25 -119q-140 -57 -303 -57q-223 0 -328 137q-86 104 -86 289zM350 596h606 q20 75 20 136q0 104 -58 163q-61 63 -170 63q-161 0 -271 -120q-89 -102 -127 -242z" />
<glyph unicode="f" horiz-adv-x="747" d="M266 942l21 109h219l45 215q17 85 43 137q27 52 74 94q85 70 213 70q65 0 123 -21l-23 -106q-59 18 -104 18q-78 0 -127 -43q-48 -46 -68 -139l-47 -225h248l-21 -109h-248l-192 -942h-129l192 942h-219z" />
<glyph unicode="g" horiz-adv-x="1163" d="M109 -401l36 125q135 -74 275 -74q102 0 188 32.5t142 88.5q74 77 114 243l37 174q-23 -32 -59.5 -70t-67.5 -61q-92 -73 -242 -73q-156 0 -249 98q-101 119 -101 315q0 139 44.5 267t123.5 221q157 182 387 182q15 0 32.5 -2t49.5 -8.5t62.5 -22.5t62 -40t57 -65.5 t39.5 -94.5h7l45 217h120l-49 -203l-172 -846q-11 -49 -21.5 -83.5t-31 -84t-52.5 -92.5t-75 -78q-148 -123 -414 -123q-147 0 -288 58zM317 399q0 -148 60 -227q57 -80 168 -80q36 0 72.5 7.5t86.5 28t100.5 68.5t90.5 119q88 158 88 338q0 138 -63.5 221.5t-178.5 83.5 q-86 0 -169 -44t-148 -142q-107 -159 -107 -373z" />
<glyph unicode="h" horiz-adv-x="1150" d="M164 0l317 1561h129l-100 -498l-57 -229h4q64 104 161 167q108 66 228 66q127 0 209 -72q86 -73 86 -204q0 -40 -19 -138l-133 -653h-129l131 647q19 107 19 139q0 83 -54 129q-47 43 -141 43q-71 0 -128 -22t-118 -72q-122 -108 -151 -252l-125 -612h-129z" />
<glyph unicode="i" horiz-adv-x="468" d="M170 0l213 1051h129l-213 -1051h-129zM438 1352l35 164h141l-34 -164h-142z" />
<glyph unicode="j" horiz-adv-x="456" d="M-150 -430l23 104q41 -12 90 -12q56 0 90 25q25 14 43.5 47.5t34.5 101.5l246 1215h129l-244 -1203q-29 -121 -61 -176q-74 -118 -240 -118q-61 0 -111 16zM440 1356l33 164h129l-33 -164h-129z" />
<glyph unicode="k" horiz-adv-x="983" d="M164 0l317 1561h129l-198 -973h10l563 463h174l-618 -494l446 -557h-168l-411 516h-11l-104 -516h-129z" />
<glyph unicode="l" horiz-adv-x="456" d="M164 0l317 1561h129l-317 -1561h-129z" />
<glyph unicode="m" horiz-adv-x="1748" d="M170 0l174 852l33 199h127l-41 -205h4q62 101 154 160q88 61 202 61q123 0 191 -68q67 -62 67 -153h4q74 108 166 162q93 59 217 59q127 0 203 -66q76 -71 76 -188q0 -41 -14 -113l-144 -700h-129l142 694q16 66 16 103q0 43 -19 77q-15 34 -52.5 59t-102.5 25 q-133 0 -236 -90q-109 -96 -139 -256l-125 -612h-129l141 694q15 58 15 90q0 36 -19 82q-42 92 -159 92q-121 0 -230 -98q-112 -104 -139 -248l-125 -612h-129z" />
<glyph unicode="n" horiz-adv-x="1155" d="M170 0l164 809l43 242h115l-43 -217h4q64 104 155 163q106 70 238 70q135 0 215 -70q84 -71 84 -202q0 -62 -17 -142l-133 -653h-129l131 647q15 62 15 115q0 46 -15 90q-15 42 -59.5 74t-124.5 32q-128 0 -233 -88q-125 -103 -156 -258l-125 -612h-129z" />
<glyph unicode="o" horiz-adv-x="1148" d="M186 401q0 132 49 262t140 228q159 176 409 176q183 0 287 -109q107 -107 107 -313q0 -229 -123 -412q-170 -249 -482 -249q-179 0 -284 114q-103 122 -103 303zM322 393q0 -83 23.5 -143.5t53.5 -89.5t71.5 -46t63.5 -19.5t44 -2.5q119 0 203 49t153 150 q108 154 108 358q0 139 -63 217q-74 92 -201 92q-192 0 -325 -167q-131 -170 -131 -398z" />
<glyph unicode="p" horiz-adv-x="1161" d="M80 -449l264 1297l33 203h123l-43 -217h6q22 42 53.5 80t77 74t109 57.5t135.5 21.5q179 0 278 -125q76 -106 76 -270q0 -239 -125 -436q-46 -69 -101.5 -120t-112 -79t-110 -40.5t-106.5 -12.5q-123 0 -207 71q-63 55 -88 133h-6l-17 -100l-110 -537h-129zM395 391 q0 -139 65.5 -219t172.5 -80q37 0 74.5 9t82.5 31t89.5 67t81.5 110q96 167 96 353q0 124 -58 202q-65 94 -188 94q-86 0 -169 -50t-146 -150q-101 -161 -101 -367z" />
<glyph unicode="q" horiz-adv-x="1163" d="M184 387q0 139 45.5 272t128.5 230q155 178 369 178q121 0 201.5 -61t109.5 -172h6l48 217h120l-49 -203l-264 -1297h-129l129 637q-143 -204 -364 -204q-91 0 -156 28t-113 92q-82 107 -82 283zM319 385q0 -118 56 -199q70 -94 190 -94q112 0 208.5 80t152 210t55.5 275 q0 134 -70 222q-67 79 -174 79q-185 0 -309 -192q-109 -174 -109 -381z" />
<glyph unicode="r" horiz-adv-x="720" d="M172 0l174 858l31 193h123l-45 -226h2q21 48 58 99t77 86q72 57 170 57q54 0 110 -18l-24 -123q-58 22 -103 22q-100 0 -184 -84q-105 -100 -137 -260l-123 -604h-129z" />
<glyph unicode="s" horiz-adv-x="858" d="M109 37l32 117q127 -62 256 -62q137 0 219 76q68 68 68 160q0 42 -25 80q-9 12 -20.5 23t-28.5 20.5t-27.5 15.5t-32 16t-28.5 13q-127 57 -166 90q-86 68 -86 174q0 66 36 135t97 109q95 63 259 63q148 0 264 -55l-31 -103q-103 49 -238 49q-56 0 -95.5 -8t-78.5 -35 q-77 -49 -77 -143q0 -58 40 -92.5t150 -81.5q110 -50 158 -98q65 -71 65 -172q0 -153 -131 -254q-113 -90 -305 -90q-152 0 -274 53z" />
<glyph unicode="t" horiz-adv-x="720" d="M233 942l21 109h215l53 262l140 47l-64 -309h250l-21 -109h-249l-132 -645q-18 -79 -18 -113q0 -50 25 -69q25 -23 96 -23q57 0 115 23l-21 -109q-67 -22 -141 -22q-109 0 -162 53q-43 43 -43 121q0 41 18 131l134 653h-216z" />
<glyph unicode="u" horiz-adv-x="1138" d="M225 272q0 53 19 142l129 637h129l-133 -656q-15 -78 -15 -116q0 -99 47 -142q52 -45 140 -45q137 0 241 96q42 36 85 100.5t61 153.5l123 609h129l-164 -811l-41 -240h-121l43 209h-2q-60 -95 -137 -148q-103 -77 -250 -77q-120 0 -193 63q-90 74 -90 225z" />
<glyph unicode="v" horiz-adv-x="952" d="M254 1051h131l109 -858l4 -82h6l37 82l448 858h135l-567 -1051h-154z" />
<glyph unicode="w" horiz-adv-x="1619" d="M254 1051h129l72 -801l4 -141h6l61 141l414 801h162l90 -801l4 -141h6l62 141l395 801h133l-528 -1051h-162l-94 844l-2 98h-7l-43 -98l-438 -844h-162z" />
<glyph unicode="x" horiz-adv-x="1007" d="M61 0l474 567l-238 484h156l139 -306l37 -98h2l317 404h154l-414 -496l260 -555h-160l-157 379l-33 94h-2l-72 -94l-311 -379h-152z" />
<glyph unicode="y" horiz-adv-x="1011" d="M37 -432l35 115q73 -19 96 -19q35 0 63.5 13t53.5 41.5t38.5 49t36.5 60.5l74 137l-160 1086h134l114 -803l10 -105l7 2l483 906h141l-710 -1289q-57 -105 -123.5 -159t-167.5 -54q-51 0 -125 19z" />
<glyph unicode="z" horiz-adv-x="974" d="M115 0l22 106l688 730l107 106h-615l21 109h752l-25 -123l-682 -719l-102 -100h645l-23 -109h-788z" />
<glyph unicode="{" horiz-adv-x="704" d="M207 510l16 88q55 10 102 38t74 64q39 51 74 197q8 38 31.5 181t50.5 218q32 81 77 135.5t122 88.5q60 27 166 41l-19 -93q-84 -13 -123 -41q-66 -46 -98 -172q-17 -68 -31.5 -163.5t-34.5 -196.5q-29 -138 -86 -211q-63 -78 -155 -109l-58 -18v-6l50 -19q21 -7 41 -19.5 t40.5 -35t33 -60t12.5 -85.5q0 -59 -60 -312q-43 -165 -43 -231q0 -80 37 -113q30 -24 102 -36l-18 -93q-82 7 -145 47q-105 74 -105 211q0 60 51 279q43 172 43 256q0 82 -41 123q-31 35 -106 47z" />
<glyph unicode="|" horiz-adv-x="655" d="M383 -573v2156h115v-2156h-115z" />
<glyph unicode="}" horiz-adv-x="704" d="M10 -453l19 93q84 13 123 41q66 46 98 172q13 51 35 186.5t30 173.5q33 153 103 233q58 63 139 86l57 19v6l-49 18q-56 21 -86 62q-41 55 -41 139q0 59 33 197q4 19 13.5 56t13.5 56q3 15 10 46t10 47q23 99 23 141q0 78 -37 111q-34 34 -103 38l19 93q17 -2 30.5 -4.5 t41 -10t49 -18.5t47.5 -31t43 -45.5t28 -64t11 -84.5q0 -9 -0.5 -19.5t-1.5 -19.5t-3 -22.5t-3 -22t-4.5 -26t-5.5 -26t-7 -30.5t-7 -31.5t-8 -36.5t-9 -39q-46 -212 -46 -268q0 -74 39 -113q38 -38 109 -51l-16 -88q-55 -10 -102.5 -38t-74.5 -64q-38 -49 -73 -197 q-7 -33 -30.5 -178t-51.5 -221q-32 -81 -74 -132t-115 -86q-65 -35 -176 -47z" />
<glyph unicode="~" horiz-adv-x="1099" d="M262 483q44 67 105 113q68 51 153 51q68 0 178 -47q5 -2 19.5 -8.5t22 -9t21.5 -7.5t24 -7.5t23.5 -4.5t25.5 -2q38 0 81.5 20t77.5 68l66 -49q-47 -64 -94 -102q-78 -58 -164 -58q-78 0 -150 35q-6 3 -25.5 11t-26 11t-22.5 9t-24 8.5t-21 6t-24.5 4.5t-22.5 1 q-37 0 -82 -20t-81 -70z" />
<glyph unicode="&#xa4;" horiz-adv-x="1421" d="M244 190l194 195q-121 133 -121 338t121 338l-194 194l82 82l194 -194q43 43 130.5 83t207.5 40q202 0 338 -123l195 194l82 -82l-195 -194q121 -133 121 -338t-121 -338l195 -195l-82 -81l-195 194q-136 -123 -338 -123q-120 0 -207.5 40t-130.5 83l-194 -194zM426 723 q0 -185 127 -316t305 -131t305 131t127 316q0 184 -126.5 315t-305.5 131t-305.5 -131t-126.5 -315z" />
<glyph unicode="&#xa6;" horiz-adv-x="655" d="M383 326h115v-899h-115v899zM383 684v899h115v-899h-115z" />
<glyph unicode="&#xa7;" horiz-adv-x="1193" d="M143 -381l43 127q142 -68 269 -68q63 0 114.5 13.5t106.5 54.5q49 38 72.5 83.5t23.5 109.5q0 67 -38 108.5t-146 87.5q-10 4 -63 26.5t-72 32.5t-53 31t-56 43q-98 90 -98 226q0 162 104 278q86 95 240 148q-92 65 -92 174q0 92 46.5 175.5t117.5 125.5q126 75 286 75 q70 0 152.5 -16.5t148.5 -44.5l-45 -123q-127 68 -260 68q-49 0 -104 -14.5t-95 -41.5q-94 -62 -94 -184q0 -30 10.5 -54t25 -41t44 -34t54 -28t69.5 -29q55 -24 85 -38.5t74.5 -42.5t73.5 -59q47 -50 62.5 -95.5t15.5 -104.5q0 -170 -121 -291q-79 -83 -223 -143v-2 q99 -75 99 -203q0 -87 -48.5 -173t-146.5 -145q-116 -69 -268 -69q-145 0 -314 57zM391 514q0 -58 20 -95t64 -71q38 -29 191 -96l65 -29q116 44 197 131q92 105 92 217q0 100 -80 160q-59 45 -174 88l-66 25q-132 -25 -227 -123q-82 -88 -82 -207z" />
<glyph unicode="&#xa8;" horiz-adv-x="917" d="M438 1352l35 164h141l-34 -164h-142zM887 1352l35 164h141l-35 -164h-141z" />
<glyph unicode="&#xa9;" horiz-adv-x="1839" d="M309 717q0 153 60 293t161.5 241.5t241.5 161.5t293 60t293 -60t241.5 -161.5t161.5 -241.5t60 -293t-60 -293t-161.5 -241.5t-241.5 -161.5t-293 -60t-293 60t-241.5 161.5t-161.5 241.5t-60 293zM412 717q0 -180 86.5 -330t236.5 -237t330 -87t330 87t236.5 237 t86.5 330q0 135 -51 256t-138 208t-208 138t-256 51t-256 -51t-208 -138t-138 -208t-51 -256zM672 631q0 115 42 223.5t126 183.5q135 123 346 123q104 0 205 -35l-21 -114q-82 39 -178 39q-182 0 -287 -117q-98 -115 -98 -293q0 -110 55 -174q72 -84 207 -84q104 0 205 43 l-4 -113q-96 -41 -205 -41q-190 0 -293 103q-100 100 -100 256z" />
<glyph unicode="&#xab;" horiz-adv-x="1021" d="M242 629l350 424h123l-342 -424l182 -424h-113zM600 629l350 424h123l-342 -424l182 -424h-112z" />
<glyph unicode="&#xac;" horiz-adv-x="1523" d="M270 827v115h1262v-553h-121v438h-1141z" />
<glyph unicode="&#xad;" horiz-adv-x="860" d="M305 492l23 108h450l-22 -108h-451z" />
<glyph unicode="&#xae;" horiz-adv-x="1921" d="M352 721q0 153 60 293t161.5 241.5t241.5 161.5t293 60t293 -60t241.5 -161.5t161.5 -241.5t60 -293t-60 -293t-161.5 -241.5t-241.5 -161.5t-293 -60t-293 60t-241.5 161.5t-161.5 241.5t-60 293zM455 721q0 -135 51 -256t138 -208t208 -138t256 -51t256 51t208 138 t138 208t51 256t-51 256t-138 208t-208 138t-256 51t-256 -51t-208 -138t-138 -208t-51 -256zM760 270l180 891h256q121 0 180 -51q60 -54 60 -137q0 -40 -16 -83t-40 -73q-62 -83 -180 -106v-6q39 -18 54.5 -41t27.5 -68l78 -326h-127l-82 330q-11 45 -28.5 59.5 t-63.5 14.5h-101l-81 -404h-117zM981 776h113q106 0 170 64q51 51 51 114q0 54 -33 80q-31 25 -104 25h-140z" />
<glyph unicode="&#xb0;" horiz-adv-x="688" d="M365 1233q0 94 67.5 161.5t161.5 67.5t161.5 -67.5t67.5 -161.5t-67.5 -161.5t-161.5 -67.5t-161.5 67.5t-67.5 161.5zM451 1233q0 -60 41.5 -101.5t101.5 -41.5t101.5 41.5t41.5 101.5t-41.5 101.5t-101.5 41.5t-101.5 -41.5t-41.5 -101.5z" />
<glyph unicode="&#xb1;" horiz-adv-x="1433" d="M182 86v115h1262v-115h-1262zM182 745v115h574v488h114v-488h574v-115h-574v-430h-114v430h-574z" />
<glyph unicode="&#xb4;" horiz-adv-x="702" d="M424 1276l238 272h192l-315 -272h-115z" />
<glyph unicode="&#xb6;" horiz-adv-x="1112" d="M393 1069q0 139 107 246q52 55 122 87t146 32h172l-383 -1883h-115l258 1268q-164 -7 -243 72q-64 64 -64 178zM700 -449l383 1883h115l-383 -1883h-115z" />
<glyph unicode="&#xb7;" horiz-adv-x="512" d="M233 731q0 72 50.5 122t122.5 50t122 -50t50 -122t-50 -122t-122 -50t-122.5 50t-50.5 122z" />
<glyph unicode="&#xbb;" horiz-adv-x="1024" d="M205 205l342 424l-182 424h112l201 -424l-350 -424h-123zM563 205l342 424l-182 424h113l200 -424l-350 -424h-123z" />
<glyph unicode="&#x2000;" horiz-adv-x="811" />
<glyph unicode="&#x2001;" horiz-adv-x="1622" />
<glyph unicode="&#x2002;" horiz-adv-x="811" />
<glyph unicode="&#x2003;" horiz-adv-x="1622" />
<glyph unicode="&#x2004;" horiz-adv-x="540" />
<glyph unicode="&#x2005;" horiz-adv-x="405" />
<glyph unicode="&#x2006;" horiz-adv-x="270" />
<glyph unicode="&#x2007;" horiz-adv-x="270" />
<glyph unicode="&#x2008;" horiz-adv-x="202" />
<glyph unicode="&#x2009;" horiz-adv-x="324" />
<glyph unicode="&#x200a;" horiz-adv-x="90" />
<glyph unicode="&#x2010;" horiz-adv-x="860" d="M305 492l23 108h450l-22 -108h-451z" />
<glyph unicode="&#x2011;" horiz-adv-x="860" d="M305 492l23 108h450l-22 -108h-451z" />
<glyph unicode="&#x2012;" horiz-adv-x="860" d="M305 492l23 108h450l-22 -108h-451z" />
<glyph unicode="&#x2013;" horiz-adv-x="1310" d="M266 600l23 115h1024l-23 -115h-1024z" />
<glyph unicode="&#x2014;" horiz-adv-x="1548" d="M266 600l23 115h1261l-22 -115h-1262z" />
<glyph unicode="&#x2018;" horiz-adv-x="620" d="M365 987l241 447h142l-203 -447h-180z" />
<glyph unicode="&#x2019;" horiz-adv-x="497" d="M303 987l203 447h180l-242 -447h-141z" />
<glyph unicode="&#x201a;" horiz-adv-x="641" d="M121 -264l203 446h180l-242 -446h-141z" />
<glyph unicode="&#x201c;" horiz-adv-x="851" d="M303 987l242 447h141l-203 -447h-180zM657 987l242 447h141l-202 -447h-181z" />
<glyph unicode="&#x201d;" horiz-adv-x="851" d="M303 987l203 447h180l-242 -447h-141zM657 987l203 447h180l-241 -447h-142z" />
<glyph unicode="&#x201e;" horiz-adv-x="851" d="M49 -264l203 446h180l-242 -446h-141zM403 -264l203 446h180l-241 -446h-142z" />
<glyph unicode="&#x2022;" horiz-adv-x="778" d="M293 731q0 101 72.5 173.5t173.5 72.5t173 -72.5t72 -173.5t-72 -173.5t-173 -72.5t-173.5 72.5t-72.5 173.5z" />
<glyph unicode="&#x2026;" horiz-adv-x="1118" d="M102 0l35 176h168l-35 -176h-168zM475 0l35 176h168l-35 -176h-168zM848 0l35 176h168l-35 -176h-168z" />
<glyph unicode="&#x202f;" horiz-adv-x="324" />
<glyph unicode="&#x2039;" horiz-adv-x="665" d="M242 627l350 424h123l-342 -424l182 -424h-113z" />
<glyph unicode="&#x203a;" horiz-adv-x="595" d="M205 203l268 424l-268 424h117l286 -424l-286 -424h-117z" />
<glyph unicode="&#x205f;" horiz-adv-x="405" />
<glyph unicode="&#x20ac;" d="M188 530l66 111h102q3 29 15 82q12 58 18 78h-145l65 110h113q41 114 101.5 208.5t143 170t194 118t241.5 42.5q120 0 212 -33.5t138 -81.5l-31 -145q-48 59 -132.5 96t-201.5 37q-99 0 -185.5 -33t-151.5 -91t-112.5 -130.5t-76.5 -157.5h701l-64 -110h-676 q-2 -11 -9 -39t-9 -39q-7 -41 -12 -82h612l-66 -111h-553q-11 -197 81 -308t278 -111q212 0 385 133l-29 -146q-61 -46 -166 -79t-231 -33q-235 0 -352.5 137.5t-104.5 406.5h-158z" />
<glyph unicode="&#x2122;" horiz-adv-x="1890" d="M270 1343l19 91h598l-19 -91h-250l-155 -770h-98l155 770h-250zM834 573l174 861h155l148 -686l4 -103h2l45 103l426 686h151l-174 -861h-98l135 666l35 117h-4l-68 -115l-422 -668h-88l-147 674l-16 109h-5l-20 -117l-135 -666h-98z" />
<glyph unicode="&#xe000;" horiz-adv-x="1054" d="M0 0v1055h1055v-1055h-1055z" />
</font>
</defs>
</svg>
