<?xml version="1.0" standalone="no"?>
<!DOCTYPE svg PUBLIC "-//W3C//DTD SVG 1.1//EN" "http://www.w3.org/Graphics/SVG/1.1/DTD/svg11.dtd" >
<svg>
<metadata>
Created by FontForge 20110222 at Tue Jun 11 04:06:06 2013
 By Orthosie Webhosting
Copyright (c) ParaType, Inc., 1999. All rights reserved.
</metadata>
<defs>
<font id="FreeSetCItalic" horiz-adv-x="614" >
  <font-face 
    font-family="FreeSetCItalic"
    font-weight="400"
    font-style="italic"
    font-stretch="normal"
    units-per-em="1000"
    panose-1="4 0 5 0 0 0 0 0 0 0"
    ascent="720"
    descent="-280"
    x-height="513"
    cap-height="700"
    bbox="-455 -280 1260 874"
    underline-thickness="50"
    underline-position="-50"
    slope="-11.5"
    unicode-range="U+0020-F6D4"
  />
<missing-glyph horiz-adv-x="233" 
 />
    <glyph glyph-name=".notdef" horiz-adv-x="233" 
 />
    <glyph glyph-name=".null" horiz-adv-x="0" 
 />
    <glyph glyph-name="nonmarkingreturn" horiz-adv-x="333" 
 />
    <glyph glyph-name="space" unicode=" " horiz-adv-x="233" 
 />
    <glyph glyph-name="space" unicode="&#xa0;" horiz-adv-x="233" 
 />
    <glyph glyph-name="exclam" unicode="!" horiz-adv-x="279" 
d="M239 700h82l-118 -525h-58zM117 86h82l-17 -86h-82z" />
    <glyph glyph-name="quotedbl" unicode="&#x22;" horiz-adv-x="329" 
d="M192 700h95l-57 -173h-51zM326 700h95l-57 -173h-51z" />
    <glyph glyph-name="numbersign" unicode="#" horiz-adv-x="647" 
d="M408 42h-46l58 158h-164l-58 -158h-46l58 158h-113l21 58h113l74 198h-113l22 58h113l58 158h46l-58 -158h164l58 155l46 3l-58 -158h113l-22 -58h-113l-74 -198h113l-21 -58h-113zM351 456l-74 -198h164l74 198h-164z" />
    <glyph glyph-name="dollar" unicode="$" 
d="M305 -86h-44l16 80q-89 -3 -170 31l20 65q78 -40 162 -38l58 285q-76 37 -110 77q-33 39 -33 86q0 101 80 157q54 40 137 47l17 82h44l-16 -80q74 0 148 -25l-22 -62q-64 30 -138 30l-53 -260q76 -39 112 -75q41 -41 41 -97q0 -83 -70 -151q-66 -64 -163 -69zM386 313
l-53 -257q81 18 118 65q30 37 30 81q0 47 -43 80q-2 1 -9 6t-18 11.5t-25 13.5zM362 414l47 232q-45 -7 -76 -27q-58 -34 -58 -103q0 -35 28 -63q28 -25 59 -39z" />
    <glyph glyph-name="percent" unicode="%" horiz-adv-x="883" 
d="M256 332q-64 0 -99 41q-33 37 -33 100q0 101 68 174q56 59 142 59q69 0 104 -46q29 -37 29 -92q0 -86 -51 -153q-62 -83 -160 -83zM640 -6q-64 0 -99 41q-33 37 -33 100q0 101 68 174q56 59 142 59q69 0 104 -46q29 -37 29 -92q0 -86 -51 -153q-62 -83 -160 -83zM193 519
q-6 -34 -6 -50q0 -38 15 -60q20 -27 64 -27q53 0 90 40q23 26 35.5 67t12.5 78q0 39 -18 62q-22 27 -62 27q-53 0 -89 -40q-27 -28 -42 -97zM577 181q-6 -34 -6 -50q0 -38 15 -60q20 -27 64 -27q53 0 90 40q23 26 35.5 67t12.5 78q0 39 -18 62q-22 27 -61 27q-54 0 -90 -40
q-27 -28 -42 -97zM155 27l629 679l33 -33l-628 -679z" />
    <glyph glyph-name="ampersand" unicode="&#x26;" horiz-adv-x="732" 
d="M592 0l-52 77q-97 -85 -233 -85q-94 0 -145 44q-55 48 -55 124q0 92 75 160q56 49 141 76q-23 26 -35 42.5t-23 42.5t-11 52q0 87 78 139q55 36 133 36q68 0 106 -29q46 -36 46 -97q0 -44 -23 -81t-59 -60.5t-65.5 -37t-56.5 -21.5l147 -212q35 44 64 106q23 53 38 113
h66q-18 -66 -50 -137q-35 -74 -87 -129l87 -123h-86zM357 456l28 -36q55 17 107 54q58 44 58 99q0 38 -24 57q-24 21 -70 21q-54 0 -89 -25q-43 -30 -43 -84q0 -44 33 -86zM512 123l-165 234q-79 -28 -123 -76q-46 -51 -46 -119q0 -54 42 -86q36 -27 96 -27q109 0 196 74z
" />
    <glyph glyph-name="quotesingle" unicode="'" horiz-adv-x="195" 
d="M192 700h95l-57 -173h-51z" />
    <glyph glyph-name="parenleft" unicode="(" horiz-adv-x="422" 
d="M426 792h57q-80 -98 -145 -207q-65 -110 -86 -193.5t-21 -166.5q0 -71 17 -169q16 -79 43 -155h-49q-35 74 -55 148q-26 94 -26 188q0 133 65 268q30 64 71 122t129 165z" />
    <glyph glyph-name="parenright" unicode=")" horiz-adv-x="422" 
d="M261 792h57q37 -94 60 -163q25 -87 25 -176q0 -168 -114 -352q-58 -94 -149 -200h-49q96 129 138 209q60 111 81.5 190t21.5 161q0 80 -16 157q-18 84 -55 174z" />
    <glyph glyph-name="asterisk" unicode="*" horiz-adv-x="503" 
d="M351 335h-58l31 136l-2 2l-127 -73l-23 51l135 66l1 2l-109 65l38 49l102 -72l2 1l23 138h57l-30 -137l1 -2l131 72l19 -51l-136 -65l1 -1l108 -65l-38 -49l-103 74l-1 -2z" />
    <glyph glyph-name="plus" unicode="+" horiz-adv-x="745" 
d="M417 665h56v-280h280v-56h-280v-280h-56v280h-280v56h280v280z" />
    <glyph glyph-name="comma" unicode="," horiz-adv-x="313" 
d="M158 89h88l-118 -218h-69z" />
    <glyph glyph-name="hyphen" unicode="-" horiz-adv-x="420" 
d="M160 293h220l-11 -53h-220z" />
    <glyph glyph-name="hyphen" unicode="&#xad;" horiz-adv-x="420" 
d="M160 293h220l-11 -53h-220z" />
    <glyph glyph-name="period" unicode="." horiz-adv-x="282" 
d="M117 86h82l-17 -86h-82z" />
    <glyph glyph-name="slash" unicode="/" horiz-adv-x="475" 
d="M-30 -254l-40 18l597 954l40 -18z" />
    <glyph glyph-name="zero" unicode="0" 
d="M150 350q37 194 117 280q71 78 186 78q100 0 148 -60q41 -51 41 -144q0 -100 -32 -224.5t-83 -188.5q-78 -99 -207 -99q-93 0 -142 59q-44 54 -44 147q0 78 16 152zM224 350q-19 -92 -19 -162t31 -103q31 -36 91 -36q91 0 146 81q43 62 71 181t28 192q0 77 -34 114
q-30 34 -89 34q-88 0 -146 -81q-48 -66 -79 -220z" />
    <glyph glyph-name="one" unicode="1" 
d="M433 700h63l-142 -700h-66l127 623l-137 -96l-28 46z" />
    <glyph glyph-name="two" unicode="2" 
d="M249 611v57q84 40 173 40q53 0 90.5 -13.5t56 -36.5t26.5 -46.5t8 -50.5q0 -44 -16 -86.5t-49.5 -85t-56.5 -67.5t-65 -65q-116 -111 -232 -199l-1 -2l347 1l-12 -57h-423l12 61q69 56 159 137t136 130q37 39 60 66.5t46.5 74t23.5 86.5q0 46 -31 74q-28 22 -87 22
q-80 0 -165 -40z" />
    <glyph glyph-name="three" unicode="3" 
d="M237 335l12 57h102q87 0 142 59q40 42 40 98q0 42 -31 71q-33 31 -100 31q-92 0 -174 -35l7 61q84 31 176 31q95 0 140 -41q50 -41 50 -107q0 -65 -41 -116q-45 -57 -127 -78v-3q46 -7 78 -41q32 -33 32 -91q0 -105 -79 -171q-77 -68 -220 -68q-90 0 -170 32l22 61
q71 -36 149 -36q112 0 175 58q52 48 52 119q0 49 -32 79q-36 30 -100 30h-103z" />
    <glyph glyph-name="four" unicode="4" 
d="M519 700h94l-96 -476h107l-12 -57h-107l-34 -167h-66l34 167h-346l12 60zM451 224l72 354l14 62h-3l-44 -57l-275 -315l-40 -43v-2l54 1h222z" />
    <glyph glyph-name="five" unicode="5" 
d="M261 700h374l-11 -57h-308l-46 -223q41 10 93 10q101 0 153 -43q59 -46 59 -133q0 -123 -101 -200q-80 -62 -200 -62q-80 0 -153 28l14 62q71 -33 147 -33q101 0 161 60q61 61 61 141q0 63 -44 95q-35 28 -122 28q-73 0 -147 -18z" />
    <glyph glyph-name="six" unicode="6" 
d="M660 693l-18 -59q-49 17 -113 17q-110 0 -183 -64q-81 -71 -116 -222l-5 -22h1q36 49 88 74t100 25q90 0 137 -50q46 -49 46 -126q0 -58 -24 -113t-64 -94q-70 -67 -184 -67q-77 0 -125 42q-63 57 -63 159q0 58 14 132t38 133q52 132 145 196q81 54 197 54q56 0 129 -15z
M208 173q0 -55 37 -92q33 -32 86 -32q94 0 150 75q45 61 45 138q0 53 -32 87q-34 36 -94 36q-100 0 -155 -87q-37 -58 -37 -125z" />
    <glyph glyph-name="seven" unicode="7" 
d="M234 700h430l-12 -60l-400 -640h-75l406 643h-360z" />
    <glyph glyph-name="eight" unicode="8" 
d="M312 361v3q-55 23 -83 63q-28 37 -28 86q0 90 77 146q67 49 163 49q94 0 140 -40q46 -39 46 -101q0 -70 -56 -127q-46 -49 -126 -80v-1q50 -19 83 -44q53 -42 53 -112q0 -74 -60 -134q-78 -77 -207 -77q-88 0 -146 38q-66 44 -66 121q0 88 87 152q53 39 123 58zM444 651
q-86 0 -131 -45q-41 -41 -41 -100q0 -14 3.5 -26t14.5 -28.5t36 -33.5t64 -33q35 14 73.5 39t57.5 48q35 40 35 91q0 38 -28 64q-29 24 -84 24zM360 331q-66 -20 -114 -52q-72 -47 -72 -121q0 -45 32 -74q42 -35 114 -35q70 0 123 34q67 46 67 114q0 43 -36 75
q-41 36 -114 59z" />
    <glyph glyph-name="nine" unicode="9" 
d="M106 7l18 59q52 -17 110 -17q112 0 186 64q89 79 119 239h-3q-34 -47 -83 -70.5t-101 -23.5q-87 0 -136 51q-47 51 -47 122q0 61 24 116.5t64 93.5q70 67 179 67q91 0 142 -51.5t51 -149.5q0 -92 -29 -195q-34 -121 -88 -190q-54 -72 -135 -106q-57 -24 -146 -24
q-57 0 -125 15zM558 524q0 63 -38 96q-36 31 -87 31q-75 0 -130 -55q-29 -29 -46 -72.5t-17 -85.5q0 -57 31 -88q33 -35 91 -35q102 0 159 87q37 53 37 122z" />
    <glyph glyph-name="colon" unicode=":" horiz-adv-x="282" 
d="M117 86h82l-17 -86h-82zM204 513h82l-17 -86h-82z" />
    <glyph glyph-name="semicolon" unicode=";" horiz-adv-x="313" 
d="M236 513h82l-17 -86h-82zM158 89h88l-118 -218h-69z" />
    <glyph glyph-name="less" unicode="&#x3c;" horiz-adv-x="611" 
d="M200 353l362 -265l-12 -57l-444 322l575 322l-11 -57z" />
    <glyph glyph-name="equal" unicode="=" horiz-adv-x="707" 
d="M118 238v56h616v-56h-616zM118 420v56h616v-56h-616z" />
    <glyph glyph-name="greater" unicode="&#x3e;" horiz-adv-x="613" 
d="M547 353l-362 265l11 57l445 -322l-576 -322l12 57z" />
    <glyph glyph-name="question" unicode="?" horiz-adv-x="442" 
d="M172 625l13 62q65 21 132 21q87 0 137 -38q48 -40 48 -107q0 -52 -34 -104q-13 -20 -31 -40.5t-30 -32t-38.5 -35t-34.5 -30.5q-70 -62 -82 -116l-6 -30h-57l6 30q6 32 25 62.5t37 49.5t50 49q76 68 100 110t24 79q0 49 -35 74q-29 22 -88 22q-70 0 -136 -26zM164 86h82
l-17 -86h-82z" />
    <glyph glyph-name="at" unicode="@" horiz-adv-x="797" 
d="M665 69v-49q-91 -31 -177 -31q-162 0 -265 93q-108 97 -108 256q0 152 114 264q110 106 281 106q142 0 230 -78q96 -87 96 -230q0 -105 -45 -173q-58 -87 -150 -87q-42 0 -66.5 25t-16.5 64h-2q-59 -89 -146 -89q-62 0 -96 38q-42 42 -42 117q0 123 78 201q59 56 133 56
q81 0 112 -74l12 67h58l-52 -300q-11 -54 35 -54q29 0 58.5 21.5t49.5 57.5q30 56 30 128q0 115 -79 191q-77 73 -200 73q-63 0 -126.5 -24t-110.5 -69q-45 -44 -70 -105t-25 -124q0 -144 96 -226q84 -75 224 -75q75 0 170 30zM573 391q0 40 -14 64q-25 44 -75 44
q-67 0 -114 -65q-40 -53 -40 -135q0 -44 18 -72q25 -34 71 -34q68 0 113 66q41 60 41 132z" />
    <glyph glyph-name="A" unicode="A" horiz-adv-x="672" 
d="M588 0l-38 193h-346l-116 -193h-73l420 700h86l136 -700h-69zM468 635h-2l-36 -66l-192 -319h302l-62 319z" />
    <glyph glyph-name="B" unicode="B" horiz-adv-x="579" 
d="M242 700h176q103 0 149 -49q34 -34 34 -98q0 -50 -24 -93q-44 -74 -137 -95v-2q52 -10 84 -50q30 -40 30 -94q0 -107 -89 -171q-66 -48 -179 -48h-186zM297 643l-52 -253h112q54 0 100 28q30 20 51.5 56.5t21.5 77.5q0 42 -30 66q-31 25 -89 25h-114zM234 333l-56 -276
h106q97 0 148 45q51 47 51 118q0 50 -28 78q-35 35 -108 35h-113z" />
    <glyph glyph-name="C" unicode="C" horiz-adv-x="613" 
d="M604 82l-13 -63q-83 -27 -172 -27q-143 0 -220 77t-77 213q0 154 96 274q123 152 340 152q84 0 157 -26l-18 -60q-72 29 -140 29q-67 0 -135.5 -27.5t-120.5 -79.5q-48 -50 -78 -120t-30 -147q0 -105 66 -171q60 -57 165 -57q93 0 180 33z" />
    <glyph glyph-name="D" unicode="D" horiz-adv-x="692" 
d="M242 700h171q148 0 216 -54q86 -67 86 -205q0 -92 -30 -174t-84 -140q-121 -127 -330 -127h-171zM297 643l-119 -586h98q17 0 34.5 2t53.5 8t69 22t69.5 41t67.5 68t51 99q23 63 23 131q0 105 -54 159q-25 25 -61.5 38t-63.5 15.5t-70 2.5h-98z" />
    <glyph glyph-name="E" unicode="E" horiz-adv-x="509" 
d="M242 700h340l-11 -57h-274l-52 -253h261l-11 -57h-261l-56 -276h293l-12 -57h-359z" />
    <glyph glyph-name="F" unicode="F" horiz-adv-x="475" 
d="M242 700h335l-11 -57h-269l-52 -253h254l-11 -57h-254l-68 -333h-66z" />
    <glyph glyph-name="G" unicode="G" horiz-adv-x="716" 
d="M748 670l-22 -62q-83 43 -169 43q-161 0 -268 -123q-47 -53 -72 -119.5t-25 -131.5q0 -99 61 -162q66 -66 193 -66q73 0 139 24l48 236h-170l11 57h236l-68 -335q-105 -39 -211 -39q-142 0 -216 67q-41 36 -67.5 93t-26.5 129q0 89 38.5 176t111.5 150q64 55 131.5 78
t151.5 23q104 0 194 -38z" />
    <glyph glyph-name="H" unicode="H" horiz-adv-x="696" 
d="M242 700h66l-62 -309h364l62 309h66l-142 -700h-66l68 334h-364l-68 -334h-66z" />
    <glyph glyph-name="I" unicode="I" horiz-adv-x="266" 
d="M242 700h66l-142 -700h-66z" />
    <glyph glyph-name="J" unicode="J" horiz-adv-x="351" 
d="M327 700h66l-108 -532q-22 -102 -80 -144q-44 -33 -115 -33q-34 0 -75 11l18 58q30 -11 61 -11q54 0 87 37q27 31 40 89z" />
    <glyph glyph-name="K" unicode="K" horiz-adv-x="591" 
d="M242 700h66l-65 -323h1l378 323h86l-399 -337l297 -363h-87l-267 335l-13 19l-1 -1l-72 -353h-66z" />
    <glyph glyph-name="L" unicode="L" horiz-adv-x="472" 
d="M242 700h66l-130 -643h286l-12 -57h-352z" />
    <glyph glyph-name="M" unicode="M" horiz-adv-x="936" 
d="M836 0h-66l110 542l22 95h-4l-53 -92l-343 -545h-68l-121 545l-15 92h-4l-128 -637h-66l142 700h103l123 -544l10 -93h4l48 93l343 544h105z" />
    <glyph glyph-name="N" unicode="N" horiz-adv-x="723" 
d="M242 700h85l226 -566l18 -64h2l126 630h66l-142 -700h-85l-223 555l-22 75h-3l-12 -81l-112 -549h-66z" />
    <glyph glyph-name="O" unicode="O" horiz-adv-x="748" 
d="M378 -8q-131 0 -199 83q-60 72 -60 192q0 90 30.5 174.5t89.5 148.5q112 118 274 118q128 0 193 -73t65 -201q0 -191 -117 -321q-113 -121 -276 -121zM190 257q0 -90 42 -142q50 -66 150 -66q71 0 138 38t112 107q68 105 68 250q0 88 -42 141q-55 66 -150 66
q-69 0 -135 -36.5t-114 -108.5q-11 -15 -24.5 -42t-29 -86.5t-15.5 -120.5z" />
    <glyph glyph-name="P" unicode="P" horiz-adv-x="532" 
d="M242 700h177q95 0 142 -56q33 -40 33 -103q0 -88 -54 -157q-70 -88 -193 -88h-121l-60 -296h-66zM297 643l-59 -290h103q93 0 144 60q42 52 42 121q0 48 -27 76q-30 33 -100 33h-103z" />
    <glyph glyph-name="Q" unicode="Q" horiz-adv-x="748" 
d="M558 -130l-115 127q-30 -5 -68 -5q-127 0 -196 83q-60 71 -60 192q0 191 120 323q55 60 126.5 89t145.5 29q64 0 110 -18q150 -57 150 -256q0 -60 -11.5 -114t-29 -92.5t-43 -72.5t-47.5 -55t-49.5 -39.5t-41 -26t-30.5 -15.5l131 -149h-92zM190 257q0 -90 42 -142
q50 -66 150 -66q73 0 139 38t111 107q68 103 68 243q0 87 -31 135q-53 79 -161 79q-69 0 -134.5 -36.5t-114.5 -108.5q-69 -107 -69 -249z" />
    <glyph glyph-name="R" unicode="R" horiz-adv-x="603" 
d="M242 700h175q93 0 141 -42q43 -38 43 -114q0 -74 -47 -125q-46 -51 -126 -69q27 -9 40 -30q9 -14 20 -55l64 -265h-68l-62 259q-8 36 -28 50t-60 14h-102l-66 -323h-66zM297 643l-54 -263h97q86 0 145 59q46 46 46 107q0 41 -22 64q-30 33 -93 33h-119z" />
    <glyph glyph-name="S" unicode="S" horiz-adv-x="496" 
d="M55 23l20 65q76 -39 151 -39q84 0 138 45q56 47 56 111q0 43 -36 76q-20 19 -93 61q-64 35 -93 68q-41 44 -41 96q0 47 23 91t64 71q61 40 166 40q82 0 152 -25l-22 -62q-64 30 -137 30q-86 0 -132 -40q-43 -41 -43 -96q0 -38 29 -66q16 -16 90 -61q80 -47 108 -79
q36 -41 36 -97q0 -49 -25 -94t-63 -74q-70 -52 -185 -52q-84 0 -163 31z" />
    <glyph glyph-name="T" unicode="T" horiz-adv-x="516" 
d="M157 700h486l-11 -57h-210l-131 -643h-66l131 643h-210z" />
    <glyph glyph-name="U" unicode="U" horiz-adv-x="717" 
d="M313 700l-94 -465q-6 -29 -6 -54q0 -57 36 -92q44 -40 123 -40q75 0 135 41q73 51 92 145l94 465h66l-95 -467q-14 -66 -42 -112.5t-82 -81.5q-75 -47 -176 -47q-100 0 -156 49q-61 52 -61 141q0 30 5 51l95 467h66z" />
    <glyph glyph-name="V" unicode="V" horiz-adv-x="651" 
d="M162 700h70l106 -556l5 -81h2l41 81l318 556h69l-402 -700h-74z" />
    <glyph glyph-name="W" unicode="W" horiz-adv-x="967" 
d="M1023 700h66l-338 -700h-83l-56 532l-5 78h-3l-285 -610h-83l-74 700h69l52 -566l3 -77h2l26 78l272 565h77l52 -566l3 -77h2l31 78z" />
    <glyph glyph-name="X" unicode="X" horiz-adv-x="635" 
d="M172 700h82l129 -253l14 -33h2l24 33l227 253h82l-301 -329l187 -371h-79l-129 257l-29 67h-2l-51 -70l-226 -254h-82l328 371z" />
    <glyph glyph-name="Y" unicode="Y" horiz-adv-x="619" 
d="M152 700h75l132 -310l16 -41l293 351h83l-354 -408l-59 -292h-66l59 292z" />
    <glyph glyph-name="Z" unicode="Z" horiz-adv-x="562" 
d="M200 700h439l-13 -67l-489 -575v-2l387 1l-12 -57h-462l13 62l496 581h-370z" />
    <glyph glyph-name="bracketleft" unicode="[" horiz-adv-x="330" 
d="M55 -219l187 919h180l-11 -57h-110l-164 -805h110l-12 -57h-180z" />
    <glyph glyph-name="backslash" unicode="\" horiz-adv-x="607" 
d="M431 -254l-209 954l48 18l209 -954z" />
    <glyph glyph-name="bracketright" unicode="]" horiz-adv-x="330" 
d="M185 -219h-180l12 57h110l164 805h-110l11 57h180z" />
    <glyph glyph-name="asciicircum" unicode="^" horiz-adv-x="528" 
d="M396 639l-195 -206h-57l265 281l151 -281h-53z" />
    <glyph glyph-name="underscore" unicode="_" horiz-adv-x="580" 
d="M0 -219v48h580v-48h-580z" />
    <glyph glyph-name="grave" unicode="`" horiz-adv-x="340" 
d="M325 756l62 -133h-48l-105 133h91z" />
    <glyph glyph-name="a" unicode="a" horiz-adv-x="521" 
d="M193 429l12 60q79 32 155 32q75 0 117 -40q52 -52 30 -151l-44 -218l-20 -112h-56l18 87h-2q-33 -45 -71 -66q-49 -29 -117 -29q-67 0 -104 32q-38 36 -38 92q0 96 90 151q76 46 240 46h38l3 18q16 80 -16 112q-25 25 -76 25q-83 0 -159 -39zM430 260h-57
q-117 0 -170 -35q-59 -38 -59 -107q0 -32 22 -53q21 -20 65 -20q80 0 133 57q41 43 58 121z" />
    <glyph glyph-name="b" unicode="b" horiz-adv-x="567" 
d="M239 762h63l-69 -341q68 100 178 100q84 0 131 -59q40 -53 40 -138q0 -146 -85 -245q-77 -87 -183 -87q-14 0 -29.5 3t-41.5 12.5t-47.5 35t-30.5 63.5h-3l-23 -106h-59l24 99zM193 192q0 -68 34 -108q31 -39 85 -39q38 0 78 22.5t73 71.5q53 82 53 186q0 58 -27 97
q-33 46 -93 46q-39 0 -77.5 -22.5t-66.5 -61.5q-59 -81 -59 -192z" />
    <glyph glyph-name="c" unicode="c" horiz-adv-x="464" 
d="M532 501l-14 -56q-53 23 -111 23q-102 0 -171 -74q-76 -82 -76 -195q0 -72 41 -110q44 -44 124 -44q58 0 116 21l-5 -54q-57 -20 -119 -20q-125 0 -186 82q-37 53 -37 128q0 137 95 232q86 87 218 87q61 0 125 -20z" />
    <glyph glyph-name="d" unicode="d" horiz-adv-x="566" 
d="M574 762h63l-135 -663l-16 -99h-59l21 106h-3q-34 -53 -84 -84q-49 -30 -105 -30q-75 0 -118 43q-49 49 -49 147q0 145 79 243q76 96 188 96q64 0 104 -35q31 -30 45 -65zM477 321q0 62 -25 100q-35 47 -94 47q-40 0 -80 -23.5t-71 -71.5q-53 -82 -53 -194q0 -59 21 -90
q29 -44 89 -44q105 0 169 108q44 75 44 168z" />
    <glyph glyph-name="e" unicode="e" horiz-adv-x="509" 
d="M522 238h-362q-20 -99 28 -153q35 -40 109 -40q85 0 154 33l-12 -58q-69 -28 -148 -28q-109 0 -160 67q-42 51 -42 141q0 133 82 227t200 94q79 0 122 -43q65 -63 36 -206zM171 291h296q26 100 -19 146q-30 31 -83 31q-78 0 -132 -59q-44 -51 -62 -118z" />
    <glyph glyph-name="f" unicode="f" horiz-adv-x="365" 
d="M143 0l94 460h-107l10 53h107l22 105q9 41 21 67q14 27 36 46q41 34 104 34q33 0 60 -10l-11 -52q-29 9 -51 9q-38 0 -62 -21q-23 -22 -33 -68l-23 -110h121l-10 -53h-121l-94 -460h-63z" />
    <glyph glyph-name="g" unicode="g" horiz-adv-x="568" 
d="M592 513l-24 -99l-84 -413q-26 -114 -88 -165q-72 -60 -202 -60q-72 0 -141 28l18 61q66 -36 134 -36q102 0 161 59q37 39 56 119l18 85q-27 -38 -62 -64q-45 -36 -118 -36q-77 0 -122 48q-49 58 -49 154q0 142 82 238q77 89 189 89q13 0 28.5 -3t41 -12.5t47 -35
t31.5 -63.5h3l22 106h59zM480 319q0 67 -31 108t-87 41q-95 0 -155 -91q-52 -78 -52 -182q0 -73 29 -111q28 -39 82 -39q109 0 171 109q43 77 43 165z" />
    <glyph glyph-name="h" unicode="h" horiz-adv-x="562" 
d="M235 762h63l-49 -243l-28 -112h2q31 50 79 82q52 32 111 32q62 0 102 -35q42 -35 42 -100q0 -22 -9 -67l-65 -319h-63l64 316q9 50 9 68q0 41 -26 63q-23 21 -69 21q-64 0 -120 -46q-59 -53 -74 -123l-61 -299h-63z" />
    <glyph glyph-name="i" unicode="i" horiz-adv-x="229" 
d="M187 513h63l-104 -513h-63zM231 740h69l-17 -80h-69z" />
    <glyph glyph-name="j" unicode="j" horiz-adv-x="223" 
d="M247 513l-119 -587q-14 -59 -30 -86q-36 -58 -117 -58q-30 0 -54 8l11 51q20 -6 44 -6q28 0 44 12q24 15 38 73l120 593h63zM231 742h63l-16 -80h-63z" />
    <glyph glyph-name="k" unicode="k" horiz-adv-x="480" 
d="M235 762h63l-97 -475h5l275 226h85l-302 -241l218 -272h-82l-201 252h-5l-51 -252h-63z" />
    <glyph glyph-name="l" unicode="l" horiz-adv-x="223" 
d="M235 762h63l-155 -762h-63z" />
    <glyph glyph-name="m" unicode="m" horiz-adv-x="854" 
d="M83 0l85 416l16 97h62l-20 -100h2q31 50 75 78q43 30 99 30q60 0 93 -33q33 -31 33 -75h2q35 52 81 79q45 29 106 29q62 0 99 -32q37 -34 37 -92q0 -20 -7 -55l-70 -342h-63l69 339q8 32 8 50q0 23 -9 38q-19 41 -76 41q-65 0 -115 -44q-53 -47 -68 -125l-61 -299h-63
l69 339q7 26 7 44q0 19 -9 40q-20 45 -78 45q-59 0 -112 -48q-54 -51 -68 -121l-61 -299h-63z" />
    <glyph glyph-name="n" unicode="n" horiz-adv-x="564" 
d="M146 0h-63l80 395l21 118h56l-21 -106h2q31 51 76 80q51 34 116 34q66 0 105 -34q41 -34 41 -99q0 -32 -8 -69l-65 -319h-63l64 316q7 28 7 56q0 24 -7 44q-19 52 -90 52q-63 0 -114 -43q-61 -50 -76 -126z" />
    <glyph glyph-name="o" unicode="o" horiz-adv-x="561" 
d="M91 196q0 64 24 127.5t68 111.5q78 86 200 86q89 0 140 -53q52 -52 52 -153q0 -112 -60 -201q-83 -122 -235 -122q-88 0 -139 56q-50 59 -50 148zM157 192q0 -40 11.5 -70t26 -44t35 -22t31 -9.5t21.5 -1.5q108 0 174 97q53 75 53 175q0 68 -31 106q-36 45 -98 45
q-94 0 -159 -82q-64 -84 -64 -194z" />
    <glyph glyph-name="p" unicode="p" horiz-adv-x="567" 
d="M102 -219h-63l129 633l16 99h60l-21 -106h3q24 46 70 80t113 34q88 0 136 -61q37 -51 37 -132q0 -117 -61 -213q-43 -65 -98.5 -94t-111.5 -29q-59 0 -101 35q-30 27 -43 65h-3l-8 -49zM193 191q0 -68 32 -107t84 -39q99 0 160 106q47 82 47 172q0 61 -28 99
q-31 46 -92 46q-92 0 -154 -98q-49 -78 -49 -179z" />
    <glyph glyph-name="q" unicode="q" horiz-adv-x="568" 
d="M592 513l-24 -99l-129 -633h-63l63 311q-70 -100 -178 -100q-87 0 -131 59q-40 52 -40 138q0 146 85 245q76 87 180 87q59 0 98.5 -30t53.5 -84h3l23 106h59zM479 321q0 65 -34 108q-33 39 -85 39q-91 0 -151 -94q-53 -85 -53 -186q0 -58 27 -97q34 -46 93 -46
q83 0 143 83.5t60 192.5z" />
    <glyph glyph-name="r" unicode="r" horiz-adv-x="352" 
d="M147 0h-63l85 419l15 94h60l-22 -110h1q22 53 66 90q35 28 83 28q27 0 54 -9l-12 -60q-28 11 -50 11q-49 0 -90 -41q-51 -49 -67 -127z" />
    <glyph glyph-name="s" unicode="s" horiz-adv-x="419" 
d="M452 494l-15 -50q-51 24 -116 24q-54 0 -85 -21q-38 -25 -38 -70q0 -28 19.5 -45t73.5 -40q53 -24 77 -48q32 -35 32 -84q0 -75 -64 -124q-55 -44 -149 -44q-74 0 -134 26l16 57q61 -30 125 -30q68 0 107 37q33 33 33 78q0 22 -12 39t-67 43q-61 27 -81 44q-42 34 -42 85
q0 32 17.5 65.5t47.5 53.5q47 31 126 31q72 0 129 -27z" />
    <glyph glyph-name="t" unicode="t" horiz-adv-x="352" 
d="M255 641l68 23l-31 -151h122l-10 -53h-122l-64 -315q-9 -38 -9 -55q0 -25 12 -34q12 -11 47 -11q29 0 56 11l-10 -53q-33 -11 -69 -11q-53 0 -79 26q-21 21 -21 59q0 20 9 64l65 319h-105l10 53h105z" />
    <glyph glyph-name="u" unicode="u" horiz-adv-x="556" 
d="M182 513h63l-65 -320q-7 -35 -7 -57q0 -48 23 -69q25 -22 68 -22q68 0 118 47q56 47 71 124l60 297h63l-80 -396l-20 -117h-59l21 102h-1q-29 -46 -67 -72q-51 -38 -122 -38q-58 0 -94 31q-44 36 -44 110q0 28 9 69z" />
    <glyph glyph-name="v" unicode="v" horiz-adv-x="465" 
d="M124 513h64l53 -419l2 -40h3l18 40l219 419h66l-277 -513h-75z" />
    <glyph glyph-name="w" unicode="w" horiz-adv-x="791" 
d="M124 513h63l35 -391l2 -69h3l30 69l202 391h79l44 -391l2 -69h3l30 69l193 391h65l-258 -513h-79l-46 412l-1 48h-3l-21 -48l-214 -412h-79z" />
    <glyph glyph-name="x" unicode="x" horiz-adv-x="492" 
d="M145 513h76l68 -149l18 -48h1l155 197h75l-202 -242l127 -271h-78l-77 185l-16 46h-1l-35 -46l-152 -185h-74l231 277z" />
    <glyph glyph-name="y" unicode="y" horiz-adv-x="494" 
d="M18 -211l17 56q33 -9 47 -9q17 0 31 6.5t26.5 20.5t19 23.5t17.5 29.5l36 67l-78 530h65l56 -392l5 -51l3 1l236 442h69l-347 -629q-28 -51 -60 -77.5t-82 -26.5q-27 0 -61 9z" />
    <glyph glyph-name="z" unicode="z" horiz-adv-x="476" 
d="M165 513h367l-12 -60l-333 -351l-50 -49h315l-11 -53h-385l11 52l336 356l52 52h-300z" />
    <glyph glyph-name="braceleft" unicode="{" horiz-adv-x="344" 
d="M154 272v-3l24 -9q62 -21 62 -98q0 -30 -29 -152q-21 -82 -21 -113q0 -39 18 -55q14 -12 50 -18l-9 -45q-40 4 -71 23q-51 36 -51 103q0 29 25 136q21 86 21 125q0 40 -20 60q-15 17 -52 23l8 43q57 11 86 50q19 25 36 96q4 18 15.5 88t24.5 107q31 79 97 109
q30 13 81 20l-9 -45q-41 -6 -60 -20q-32 -22 -48 -84q-8 -33 -15 -79.5t-17 -96.5q-15 -68 -42 -103q-30 -38 -76 -53z" />
    <glyph glyph-name="bar" unicode="|" horiz-adv-x="320" 
d="M187 -280v1053h56v-1053h-56z" />
    <glyph glyph-name="braceright" unicode="}" horiz-adv-x="344" 
d="M300 269v3l-24 9q-27 11 -42 30q-20 27 -20 68q0 28 16 96q2 10 6.5 27.5t6.5 27.5q2 8 5.5 23t4.5 22q11 46 11 69q0 38 -18 54q-17 17 -50 19l9 45q123 -15 122 -126q0 -26 -24 -133q-22 -102 -22 -131q0 -36 19 -55t53 -25l-8 -43q-57 -11 -86 -50q-19 -25 -36 -96
q-3 -15 -14.5 -86.5t-25.5 -108.5q-16 -39 -36 -64t-56 -42q-32 -17 -86 -23l9 45q41 6 60 20q32 22 48 84q6 25 17 90.5t15 85.5q17 77 50 114q28 30 68 42z" />
    <glyph glyph-name="asciitilde" unicode="~" horiz-adv-x="537" 
d="M485 317l32 -24q-23 -31 -46 -50q-38 -28 -80 -28q-37 0 -73 17q-60 25 -81 25q-48 0 -80 -44l-29 23q21 33 51 55q34 25 75 25q33 0 87 -23q45 -19 66 -19q47 0 78 43z" />
    <glyph glyph-name="currency" unicode="&#xa4;" horiz-adv-x="694" 
d="M159 653l95 -95q21 21 63.5 40.5t101.5 19.5q98 0 165 -60l95 95l40 -40l-95 -95q59 -65 59 -165t-59 -165l95 -95l-40 -40l-95 95q-67 -60 -165 -60q-59 0 -101.5 19.5t-63.5 40.5l-95 -95l-40 40l95 95q-59 65 -59 165t59 165l-95 95zM208 353q0 -90 62 -154t149 -64
t149 64t62 154t-62 154t-149 64t-149 -64t-62 -154z" />
    <glyph glyph-name="brokenbar" unicode="&#xa6;" horiz-adv-x="320" 
d="M187 334v439h56v-439h-56zM243 -280h-56v439h56v-439z" />
    <glyph glyph-name="section" unicode="&#xa7;" horiz-adv-x="583" 
d="M70 -186l21 62q68 -33 131 -33q64 0 108 33q47 36 47 94q0 33 -18.5 53t-71.5 43q-8 3 -25.5 10.5t-27 12t-23 11.5t-24 14.5t-19.5 16.5q-48 44 -48 110q0 79 51 136q42 46 117 72q-45 32 -45 85q0 45 22.5 85.5t57.5 61.5q62 37 140 37t147 -30l-22 -60q-62 33 -127 33
q-57 0 -97 -27q-46 -30 -46 -90q0 -18 6 -31.5t21.5 -24.5t29.5 -17.5t42 -17.5q83 -36 114 -68q38 -40 38 -98q0 -83 -59 -142q-40 -41 -109 -70v-1q48 -36 48 -99q0 -42 -23.5 -84t-71.5 -71q-57 -34 -131 -34q-70 0 -153 28zM325 123l32 -14q57 21 96 64q45 52 45 106
q0 49 -39 78q-28 21 -85 43l-32 12q-65 -12 -111 -60q-40 -43 -40 -101q0 -50 41 -81q20 -15 93 -47z" />
    <glyph glyph-name="dieresis" unicode="&#xa8;" horiz-adv-x="448" 
d="M231 740h69l-17 -80h-69zM450 740h69l-17 -80h-69z" />
    <glyph glyph-name="copyright" unicode="&#xa9;" horiz-adv-x="898" 
d="M679 550l-10 -56q-41 19 -87 19q-89 0 -140 -57q-48 -57 -48 -143q0 -53 27 -85q35 -41 101 -41q49 0 100 21l-2 -55q-48 -20 -100 -20q-93 0 -143 50q-49 49 -49 125q0 126 82 199q66 60 169 60q50 0 100 -17zM151 350q0 152 108.5 260.5t260.5 108.5t260.5 -108.5
t108.5 -260.5t-108.5 -260.5t-260.5 -108.5t-260.5 108.5t-108.5 260.5zM201 350q0 -134 92.5 -226.5t226.5 -92.5t226.5 92.5t92.5 226.5t-92.5 226.5t-226.5 92.5t-226.5 -92.5t-92.5 -226.5z" />
    <glyph glyph-name="guillemotleft" unicode="&#xab;" horiz-adv-x="499" 
d="M182 307l89 -207h-55l-98 207l171 207h60zM357 307l89 -207h-55l-98 207l171 207h60z" />
    <glyph glyph-name="logicalnot" unicode="&#xac;" horiz-adv-x="744" 
d="M748 460v-270h-59v214h-557v56h616z" />
    <glyph glyph-name="registered" unicode="&#xae;" horiz-adv-x="938" 
d="M459 567h125q59 0 88 -25q29 -26 29 -67q0 -42 -27 -76q-30 -40 -88 -52v-3q19 -8 26.5 -19.5t13.5 -33.5l38 -159h-62l-40 161q-5 22 -13.5 29t-31.5 7h-49l-40 -197h-57zM507 517l-28 -138h55q52 0 83 31q25 25 25 56q0 27 -16 39q-15 12 -51 12h-68zM172 352
q0 152 108.5 260.5t260.5 108.5t260.5 -108.5t108.5 -260.5t-108.5 -260.5t-260.5 -108.5t-260.5 108.5t-108.5 260.5zM222 352q0 -134 93 -226.5t226 -92.5t226 92.5t93 226.5t-93 226.5t-226 92.5t-226 -92.5t-93 -226.5z" />
    <glyph glyph-name="degree" unicode="&#xb0;" horiz-adv-x="336" 
d="M178 602q0 46 33 79t79 33t79 -33t33 -79t-33 -79t-79 -33t-79 33t-33 79zM220 602q0 -29 20.5 -49.5t49.5 -20.5t49.5 20.5t20.5 49.5t-20.5 49.5t-49.5 20.5t-49.5 -20.5t-20.5 -49.5z" />
    <glyph glyph-name="plusminus" unicode="&#xb1;" horiz-adv-x="700" 
d="M89 42v56h616v-56h-616zM425 154h-56v210h-280v56h280v238h56v-238h280v-56h-280v-210z" />
    <glyph glyph-name="acute" unicode="&#xb4;" horiz-adv-x="343" 
d="M323 756h94l-154 -133h-56z" />
    <glyph glyph-name="mu" unicode="&#xb5;" horiz-adv-x="554" 
d="M515 513h63l-104 -513h-55l21 102q-21 -43 -66 -75q-50 -33 -117 -33q-75 0 -104 55l-55 -268h-63l149 732h63l-60 -297q-4 -20 -5.5 -31.5t-3 -35.5t3.5 -39t14.5 -31.5t30 -25t50.5 -8.5q67 0 113 49q48 48 65 122z" />
    <glyph glyph-name="mu" unicode="&#x3bc;" horiz-adv-x="554" 
d="M515 513h63l-104 -513h-55l21 102q-21 -43 -66 -75q-50 -33 -117 -33q-75 0 -104 55l-55 -268h-63l149 732h63l-60 -297q-4 -20 -5.5 -31.5t-3 -35.5t3.5 -39t14.5 -31.5t30 -25t50.5 -8.5q67 0 113 49q48 48 65 122z" />
    <glyph glyph-name="paragraph" unicode="&#xb6;" horiz-adv-x="543" 
d="M272 -219h-56l126 619q-80 -4 -119 35q-31 31 -31 87q0 68 52 120q55 58 131 58h84zM529 700h56l-187 -919h-56z" />
    <glyph glyph-name="periodcentered" unicode="&#xb7;" horiz-adv-x="250" 
d="M114 357q0 35 24.5 59.5t59.5 24.5t59.5 -24.5t24.5 -59.5t-24.5 -59.5t-59.5 -24.5t-59.5 24.5t-24.5 59.5z" />
    <glyph glyph-name="periodcentered" unicode="&#x2219;" horiz-adv-x="250" 
d="M114 357q0 35 24.5 59.5t59.5 24.5t59.5 -24.5t24.5 -59.5t-24.5 -59.5t-59.5 -24.5t-59.5 24.5t-24.5 59.5z" />
    <glyph glyph-name="guillemotright" unicode="&#xbb;" horiz-adv-x="500" 
d="M442 307l-89 207h55l98 -207l-171 -207h-60zM267 307l-89 207h55l98 -207l-171 -207h-60z" />
    <glyph glyph-name="dotlessi" unicode="&#x131;" horiz-adv-x="223" 
d="M184 513h63l-104 -513h-63z" />
    <glyph glyph-name="dotaccent" unicode="&#x2d9;" horiz-adv-x="269" 
d="M251 740h69l-17 -80h-69z" />
    <glyph glyph-name="afii10023" unicode="&#x401;" horiz-adv-x="509" 
d="M242 700h340l-11 -57h-274l-52 -253h261l-11 -57h-261l-56 -276h293l-12 -57h-359zM290 844h69l-17 -80h-69zM507 844h69l-17 -80h-69z" />
    <glyph glyph-name="afii10051" unicode="&#x402;" horiz-adv-x="771" 
d="M157 700h497l-11 -57h-228l-48 -237q41 26 88 39q63 19 117 19q84 0 131 -43q45 -40 45 -116q0 -59 -22 -127t-56 -108q-66 -79 -179 -79q-45 0 -88 15l16 57q37 -14 70 -14q89 0 138 70q21 31 35 83t14 92q0 56 -29 82q-31 31 -102 31q-58 0 -106 -20q-43 -15 -84 -38
l-71 -349h-66l131 643h-203z" />
    <glyph glyph-name="afii10052" unicode="&#x403;" horiz-adv-x="469" 
d="M242 700h359l-11 -57h-293l-131 -643h-66zM440 871h112l-147 -123h-73z" />
    <glyph glyph-name="afii10053" unicode="&#x404;" horiz-adv-x="609" 
d="M604 84l-11 -63q-82 -29 -182 -29q-129 0 -203 65q-86 78 -86 210q0 100 49.5 198.5t119.5 155.5q107 87 278 87q83 0 149 -29l-19 -62q-64 34 -149 34q-133 0 -222 -82q-86 -76 -113 -178h345l-12 -57h-348q-7 -28 -7 -64q0 -97 57 -157q62 -64 172 -64q100 0 182 35z
" />
    <glyph glyph-name="afii10054" unicode="&#x405;" horiz-adv-x="496" 
d="M55 23l20 65q76 -39 151 -39q84 0 138 45q56 47 56 111q0 43 -36 76q-20 19 -93 61q-64 35 -93 68q-41 44 -41 96q0 47 23 91t64 71q61 40 166 40q82 0 152 -25l-22 -62q-64 30 -137 30q-86 0 -132 -40q-43 -41 -43 -96q0 -38 29 -66q16 -16 90 -61q80 -47 108 -79
q36 -41 36 -97q0 -49 -25 -94t-63 -74q-70 -52 -185 -52q-84 0 -163 31z" />
    <glyph glyph-name="afii10055" unicode="&#x406;" horiz-adv-x="266" 
d="M242 700h66l-142 -700h-66z" />
    <glyph glyph-name="afii10056" unicode="&#x407;" horiz-adv-x="262" 
d="M240 700h66l-142 -700h-66zM187 844h70l-17 -80h-70zM349 844h70l-17 -80h-70z" />
    <glyph glyph-name="afii10057" unicode="&#x408;" horiz-adv-x="351" 
d="M327 700h66l-108 -532q-20 -97 -73 -137t-121 -40q-37 0 -76 11l18 58q33 -13 62 -13q100 0 126 128z" />
    <glyph glyph-name="afii10058" unicode="&#x409;" horiz-adv-x="993" 
d="M633 643h-269l-38 -185q-57 -283 -100 -359q-58 -107 -159 -107q-27 0 -47 7l15 55q18 -5 39 -5q54 0 94 73q37 64 93 339l48 239h401l-58 -287h112q111 0 161 -42q52 -42 52 -116q0 -62 -33 -121.5t-80 -90.5q-66 -43 -150 -43h-212zM580 57h126q77 0 130 43
q32 26 51 65t19 78q0 51 -37 84q-34 29 -118 29h-111z" />
    <glyph glyph-name="afii10059" unicode="&#x40a;" horiz-adv-x="1023" 
d="M242 700h66l-58 -287h365l58 287h66l-58 -287h112h38q84 0 134 -50q41 -41 41 -108q0 -123 -100 -198q-77 -57 -163 -57h-212l72 356h-365l-72 -356h-66zM669 356l-60 -299h126q77 0 130 43q32 26 51 65.5t19 78.5q0 48 -30 78q-34 34 -125 34h-111z" />
    <glyph glyph-name="afii10060" unicode="&#x40b;" horiz-adv-x="762" 
d="M157 700h486l-11 -57h-220l-48 -237q26 15 88 36q64 22 112 22q94 0 138 -39q39 -34 39 -97q0 -22 -7 -59l-55 -269h-66l52 254q10 48 10 67q0 35 -23 58q-32 32 -98 32q-49 0 -107 -21q-50 -18 -95 -41l-71 -349h-66l131 643h-200z" />
    <glyph glyph-name="afii10061" unicode="&#x40c;" horiz-adv-x="632" 
d="M242 700h66l-65 -323h1l29 25l359 298h84l-407 -331l303 -369h-93l-244 305l-36 49l-1 -1l-72 -353h-66zM478 871h112l-147 -123h-73z" />
    <glyph glyph-name="afii10062" unicode="&#x40e;" horiz-adv-x="587" 
d="M323 874h60q10 -57 89 -57q34 0 60.5 11.5t36.5 23t16 22.5h60q-25 -47 -66 -78q-51 -38 -119 -38q-50 0 -88 29q-42 34 -49 87zM147 700h74l105 -372l18 -88h3l48 84l232 376h72l-367 -589q-40 -64 -66 -86q-39 -33 -96 -33q-39 0 -65 12l14 56q17 -11 46 -11
q37 0 66 27q9 8 38 52l26 42z" />
    <glyph glyph-name="afii10145" unicode="&#x40f;" horiz-adv-x="704" 
d="M100 0l142 700h66l-130 -643h372l130 643h66l-142 -700h-219l-31 -152h-66l31 152h-219z" />
    <glyph glyph-name="afii10017" unicode="&#x410;" horiz-adv-x="672" 
d="M435 700h86l136 -700h-71l-38 193h-346l-116 -193h-71zM466 635h-2l-36 -66l-192 -319h302l-62 319z" />
    <glyph glyph-name="afii10018" unicode="&#x411;" horiz-adv-x="574" 
d="M242 700h374l-11 -57h-308l-51 -249h120q85 0 133 -33q22 -15 40.5 -46.5t18.5 -79.5q0 -54 -25 -103t-70 -81q-68 -51 -182 -51h-181zM235 337l-57 -280h102q87 0 139 38q67 50 67 135q0 49 -30 76q-34 31 -118 31h-103z" />
    <glyph glyph-name="afii10019" unicode="&#x412;" horiz-adv-x="579" 
d="M242 700h176q103 0 149 -49q34 -34 34 -98q0 -50 -24 -93q-44 -74 -137 -95v-2q52 -10 84 -50q30 -40 30 -94q0 -107 -89 -171q-66 -48 -179 -48h-186zM297 643l-52 -253h112q54 0 100 28q30 20 51.5 56.5t21.5 77.5q0 42 -30 66q-31 25 -89 25h-114zM234 333l-56 -276
h106q97 0 148 45q51 47 51 118q0 50 -28 78q-35 35 -108 35h-113z" />
    <glyph glyph-name="afii10020" unicode="&#x413;" horiz-adv-x="469" 
d="M242 700h359l-11 -57h-293l-131 -643h-66z" />
    <glyph glyph-name="afii10021" unicode="&#x414;" horiz-adv-x="698" 
d="M319 700h400l-130 -643h81l-43 -209h-66l31 152h-506l-31 -152h-66l43 209h59q93 108 137 236q23 65 52 215zM642 643h-268l-29 -143q-35 -177 -71 -265q-41 -97 -108 -178h357z" />
    <glyph glyph-name="afii10022" unicode="&#x415;" horiz-adv-x="509" 
d="M242 700h340l-11 -57h-274l-52 -253h261l-11 -57h-261l-56 -276h293l-12 -57h-359z" />
    <glyph glyph-name="afii10024" unicode="&#x416;" horiz-adv-x="866" 
d="M542 700h66l-64 -319h3l346 319h80l-361 -328l252 -372h-95l-228 354h-3l-72 -354h-66l72 354h-3l-372 -354h-95l404 372l-229 328h80l218 -319h3z" />
    <glyph glyph-name="afii10025" unicode="&#x417;" horiz-adv-x="510" 
d="M196 337l11 57h82q97 0 150 50q44 44 44 104q0 50 -36 77q-34 26 -96 26q-96 0 -184 -39l7 63q94 33 194 33q95 0 143 -45q44 -42 44 -107q0 -76 -52 -130q-41 -43 -97 -57v-2q50 -11 81 -48q26 -31 26 -84q0 -49 -25.5 -100.5t-86.5 -90.5q-80 -52 -186 -52
q-100 0 -188 44l22 62q83 -49 170 -49q99 0 162 53q61 51 61 126q0 51 -40 80q-44 29 -121 29h-85z" />
    <glyph glyph-name="afii10026" unicode="&#x418;" horiz-adv-x="717" 
d="M242 700h66l-107 -526l-21 -85h3l54 71l447 540h75l-142 -700h-66l107 526l21 85h-3l-48 -66l-453 -545h-75z" />
    <glyph glyph-name="afii10027" unicode="&#x419;" horiz-adv-x="717" 
d="M242 700h66l-107 -526l-21 -85h3l53 71l448 540h75l-142 -700h-66l107 526l21 85h-3l-48 -66l-453 -545h-75zM380 828l38 38q16 -27 36 -39q28 -18 69 -18q69 0 127 57l27 -39q-27 -35 -66 -54q-44 -23 -100 -23q-50 0 -87 29q-24 18 -44 49z" />
    <glyph glyph-name="afii10028" unicode="&#x41a;" horiz-adv-x="591" 
d="M242 700h66l-65 -323h1l378 323h86l-399 -337l297 -363h-87l-267 335l-13 19l-1 -1l-72 -353h-66z" />
    <glyph glyph-name="afii10029" unicode="&#x41b;" horiz-adv-x="668" 
d="M309 700h401l-142 -700h-66l131 643h-269l-38 -185q-35 -167 -60 -251q-37 -122 -89 -170q-52 -45 -110 -45q-21 0 -47 7l15 55q17 -5 31 -5q59 0 98 71q32 60 57 161q6 23 40 180z" />
    <glyph glyph-name="afii10030" unicode="&#x41c;" horiz-adv-x="936" 
d="M479 63h4l48 93l343 544h104l-142 -700h-66l110 542l22 95h-4l-53 -92l-343 -545h-68l-121 545l-15 92h-4l-128 -637h-66l142 700h104l123 -544z" />
    <glyph glyph-name="afii10031" unicode="&#x41d;" horiz-adv-x="696" 
d="M242 700h66l-62 -309h364l62 309h66l-142 -700h-66l68 334h-364l-68 -334h-66z" />
    <glyph glyph-name="afii10032" unicode="&#x41e;" horiz-adv-x="748" 
d="M378 -8q-131 0 -199 83q-60 72 -60 192q0 90 30.5 174.5t89.5 148.5q112 118 274 118q128 0 193 -73t65 -201q0 -191 -117 -321q-113 -121 -276 -121zM190 257q0 -90 42 -142q50 -66 150 -66q71 0 138 38t112 107q68 105 68 250q0 88 -42 141q-55 66 -150 66
q-69 0 -135 -36.5t-114 -108.5q-11 -15 -24.5 -42t-29 -86.5t-15.5 -120.5z" />
    <glyph glyph-name="afii10033" unicode="&#x41f;" horiz-adv-x="697" 
d="M242 700h497l-142 -700h-66l131 643h-365l-131 -643h-66z" />
    <glyph glyph-name="afii10034" unicode="&#x420;" horiz-adv-x="532" 
d="M242 700h177q95 0 142 -56q33 -40 33 -103q0 -88 -54 -157q-70 -88 -193 -88h-121l-60 -296h-66zM297 643l-59 -290h103q93 0 144 60q42 52 42 121q0 48 -27 76q-30 33 -100 33h-103z" />
    <glyph glyph-name="afii10035" unicode="&#x421;" horiz-adv-x="613" 
d="M604 82l-13 -63q-83 -27 -172 -27q-143 0 -220 77t-77 213q0 154 96 274q123 152 340 152q84 0 157 -26l-18 -60q-66 29 -140 29q-67 0 -135.5 -27t-120.5 -80q-48 -50 -78 -120t-30 -147q0 -105 66 -171q60 -57 165 -57q93 0 180 33z" />
    <glyph glyph-name="afii10036" unicode="&#x422;" horiz-adv-x="469" 
d="M128 700h486l-11 -57h-210l-131 -643h-66l131 643h-210z" />
    <glyph glyph-name="afii10037" unicode="&#x423;" horiz-adv-x="563" 
d="M147 700h74l105 -372l18 -88h3l48 84l232 376h72l-367 -589q-40 -64 -66 -86q-39 -33 -96 -33q-39 0 -65 12l14 56q17 -11 46 -11q37 0 66 27q9 8 38 52l26 42z" />
    <glyph glyph-name="afii10038" unicode="&#x424;" horiz-adv-x="861" 
d="M548 742h66l-17 -83h31q102 0 170 -52q83 -64 83 -181q0 -76 -35 -154.5t-99 -132.5q-103 -86 -242 -86h-31l-18 -85h-66l18 85h-31q-112 0 -183 65q-69 64 -69 167q0 76 35.5 155.5t101.5 134.5q104 84 238 84h31zM419 110l100 492h-31q-98 0 -173 -57
q-58 -44 -89.5 -113.5t-31.5 -141.5q0 -86 55 -135q51 -45 139 -45h31zM585 602l-100 -492h31q61 0 114 24t87 58q95 90 95 222q0 90 -57 142q-52 46 -139 46h-31z" />
    <glyph glyph-name="afii10039" unicode="&#x425;" horiz-adv-x="643" 
d="M177 700h78l129 -253l15 -33h3l258 286h80l-304 -329l187 -371h-78l-128 257l-27 67h-3l-57 -70l-227 -254h-83l333 371z" />
    <glyph glyph-name="afii10040" unicode="&#x426;" horiz-adv-x="727" 
d="M242 700h66l-130 -643h372l130 643h66l-130 -643h83l-43 -209h-66l31 152h-521z" />
    <glyph glyph-name="afii10041" unicode="&#x427;" horiz-adv-x="640" 
d="M208 700h66l-47 -232q-4 -15 -4 -35q0 -43 33 -66q34 -25 110 -25q67 0 139 9l41 5l70 344h66l-142 -700h-66l61 299l-40 -4q-102 -10 -147 -10q-104 0 -152 42q-41 33 -41 91q0 23 6 49z" />
    <glyph glyph-name="afii10042" unicode="&#x428;" horiz-adv-x="1030" 
d="M624 700h66l-130 -643h316l130 643h66l-142 -700h-830l142 700h66l-130 -643h316z" />
    <glyph glyph-name="afii10043" unicode="&#x429;" horiz-adv-x="1045" 
d="M624 700h66l-130 -643h316l130 643h66l-130 -643h75l-43 -209h-66l31 152h-839l142 700h66l-130 -643h316z" />
    <glyph glyph-name="afii10044" unicode="&#x42a;" horiz-adv-x="677" 
d="M162 700h230l-58 -287h112q40 0 63 -2t54.5 -13.5t54.5 -34.5q42 -44 42 -106q0 -49 -21 -100.5t-61 -87.5q-73 -69 -190 -69h-204l131 643h-164zM322 356l-60 -299h126q78 0 143 53q25 24 41 61t16 75q0 46 -30 76q-34 34 -125 34h-111z" />
    <glyph glyph-name="afii10045" unicode="&#x42b;" horiz-adv-x="806" 
d="M242 700h66l-58 -287h112q38 0 57.5 -1t51 -11t53.5 -30q51 -49 51 -116q0 -55 -24.5 -108t-75.5 -90q-75 -57 -192 -57h-183zM238 356l-60 -299h109q90 0 148 46q69 54 69 143q0 56 -42 85q-35 25 -113 25h-111zM782 700h66l-142 -700h-66z" />
    <glyph glyph-name="afii10046" unicode="&#x42c;" horiz-adv-x="593" 
d="M242 700h66l-58 -287h112q100 0 152 -38q62 -44 62 -125q0 -57 -26.5 -110t-77.5 -88q-10 -7 -26 -16.5t-55.5 -22.5t-78.5 -13h-212zM238 356l-60 -299h115q101 0 157 58q53 53 53 126q0 68 -50 95q-37 20 -104 20h-111z" />
    <glyph glyph-name="afii10047" unicode="&#x42d;" horiz-adv-x="641" 
d="M202 335l12 57h373q2 26 2 42q0 85 -51 144q-63 73 -178 73q-108 0 -195 -48l5 63q96 42 202 42q140 0 215 -81q73 -78 73 -205q0 -114 -53 -211.5t-135 -148.5q-112 -70 -258 -70q-82 0 -166 30l13 64q76 -37 156 -37q140 0 233 72q103 79 125 214h-373z" />
    <glyph glyph-name="afii10048" unicode="&#x42e;" horiz-adv-x="976" 
d="M246 391h120q36 135 135 224q103 93 248 93q118 0 184 -74t66 -196q0 -175 -113 -308q-61 -72 -128.5 -105t-156.5 -33q-146 0 -213 102q-43 65 -43 161q0 41 8 79h-119l-68 -334h-66l142 700h66zM427 349q-8 -43 -8 -80q0 -113 56 -169q51 -51 136 -51q123 0 212 103
q47 53 75.5 127.5t28.5 144.5q0 114 -54.5 170.5t-139.5 56.5q-111 0 -196 -85q-81 -81 -110 -217z" />
    <glyph glyph-name="afii10049" unicode="&#x42f;" horiz-adv-x="609" 
d="M651 700l-142 -700h-66l61 299h-137l-218 -299h-84l233 312q-56 18 -86 67q-20 34 -20 80q0 114 87 184q71 57 176 57h196zM515 356l59 287h-116q-92 0 -141 -49q-24 -24 -38.5 -58.5t-14.5 -67.5q0 -55 35 -83q35 -29 109 -29h107z" />
    <glyph glyph-name="afii10065" unicode="&#x430;" horiz-adv-x="521" 
d="M193 429l12 60q79 32 155 32q75 0 117 -40q36 -36 36 -99q0 -24 -6 -52l-44 -218l-20 -112h-56l18 87h-2q-33 -45 -71 -66q-49 -29 -117 -29q-67 0 -104 32q-38 36 -38 92q0 96 90 151q76 46 240 46h38l3 18q7 40 7 51q0 38 -23 61q-25 25 -76 25q-83 0 -159 -39z
M430 260h-57q-117 0 -170 -35q-59 -38 -59 -107q0 -32 22 -53q21 -20 65 -20q80 0 133 57q41 43 58 121z" />
    <glyph glyph-name="afii10066" unicode="&#x431;" horiz-adv-x="589" 
d="M657 774l-12 -59q-35 -7 -58 -10t-53 -4.5t-47 -2.5q-61 -6 -98 -16.5t-68 -33.5q-54 -38 -92 -117q-33 -76 -40 -126l-4 -24h3q40 74 111 111q54 29 116 29q86 0 139 -57q49 -51 49 -138q0 -152 -100 -250q-86 -84 -201 -84q-94 0 -146 61q-50 57 -50 164q0 94 35 218
q24 89 58 150q40 71 106 114q65 43 197 56q106 9 155 19zM397 468q-73 0 -133 -54q-42 -38 -67 -96.5t-25 -118.5q0 -71 38 -113q37 -41 99 -41q103 0 165.5 84.5t62.5 187.5q0 69 -39 111q-39 40 -101 40z" />
    <glyph glyph-name="afii10067" unicode="&#x432;" horiz-adv-x="535" 
d="M184 513h203q64 0 102 -32q34 -29 34 -75q0 -57 -40 -97q-22 -22 -57 -37v-2q74 -25 74 -97q0 -76 -64 -129q-54 -44 -142 -44h-214zM237 460l-34 -167h136q49 0 79 24q40 33 40 78q0 31 -22 47q-22 18 -63 18h-136zM192 240l-38 -187h146q51 0 86 24q47 33 47 86
q0 37 -24 56q-25 21 -81 21h-136z" />
    <glyph glyph-name="afii10068" unicode="&#x433;" horiz-adv-x="395" 
d="M184 513h314l-10 -53h-251l-94 -460h-63z" />
    <glyph glyph-name="afii10069" unicode="&#x434;" horiz-adv-x="582" 
d="M239 513h342l-93 -460h75l-39 -191h-63l28 138h-421l-28 -138h-63l39 191h56q39 44 72 101q35 64 55 163zM144 53h281l83 407h-216l-30 -144q-19 -90 -48 -153q-31 -68 -70 -110z" />
    <glyph glyph-name="afii10070" unicode="&#x435;" horiz-adv-x="509" 
d="M517 238h-362q-5 -28 -5 -50q0 -65 33 -103q35 -40 109 -40q85 0 154 33l-12 -58q-69 -28 -148 -28q-109 0 -160 67q-42 51 -42 141q0 133 82 227t200 94q79 0 122 -43q46 -45 46 -123q0 -33 -10 -83zM166 291h296q9 40 9 67q0 51 -28 79q-30 31 -83 31q-78 0 -132 -59
q-44 -51 -62 -118z" />
    <glyph glyph-name="afii10072" unicode="&#x436;" horiz-adv-x="741" 
d="M443 513h63l-47 -232h3l272 232h77l-283 -239l208 -274h-90l-189 258h-3l-52 -258h-63l52 258h-3l-293 -258h-90l320 274l-187 239h77l178 -232h3z" />
    <glyph glyph-name="afii10073" unicode="&#x437;" horiz-adv-x="437" 
d="M182 241l11 52h46q58 0 96 23q45 29 45 79q0 35 -25 53q-25 20 -82 20q-62 0 -131 -29l10 55q72 27 138 27q70 0 110 -30q44 -32 44 -84q0 -58 -39 -97q-26 -26 -62 -37l-1 -3q37 -9 58 -34q0 -1 3.5 -5.5t6 -9.5t5.5 -12.5t5 -17.5t2 -21q0 -43 -25 -82.5t-67 -62.5
q-59 -33 -148 -33q-73 0 -147 34l19 58q62 -39 140 -39q74 0 116 35q45 38 45 88q0 42 -37 59q-27 14 -90 14h-46z" />
    <glyph glyph-name="afii10074" unicode="&#x438;" horiz-adv-x="594" 
d="M184 513h63l-76 -376l-12 -54h3l45 55l341 375h70l-104 -513h-63l76 376l12 54h-3l-45 -54l-341 -376h-70z" />
    <glyph glyph-name="afii10075" unicode="&#x439;" horiz-adv-x="594" 
d="M184 513h63l-76 -376l-12 -54h3l45 55l341 375h70l-104 -513h-63l76 376l12 54h-3l-45 -54l-341 -376h-70zM295 709l38 35q34 -57 104 -57t127 57l26 -34q-21 -32 -55 -51q-46 -28 -104 -28q-96 0 -136 78z" />
    <glyph glyph-name="afii10076" unicode="&#x43a;" horiz-adv-x="474" 
d="M184 513h63l-46 -226h3l281 226h81l-302 -241l222 -272h-86l-202 254h-3l-52 -254h-63z" />
    <glyph glyph-name="afii10077" unicode="&#x43b;" horiz-adv-x="540" 
d="M230 513h334l-104 -513h-63l94 460h-208l-20 -95q-27 -121 -47 -193q-28 -105 -68 -143q-38 -37 -94 -37q-27 0 -47 6l10 51q15 -5 36 -5q29 0 49 16q20 17 35 57q11 30 30 103q7 25 20.5 86t14.5 66z" />
    <glyph glyph-name="afii10078" unicode="&#x43c;" horiz-adv-x="705" 
d="M268 513l85 -382l7 -66h2l282 448h85l-104 -513h-63l74 365l22 83h-3l-45 -83l-234 -365h-48l-82 365l-14 83h-3l-12 -83l-74 -365h-63l104 513h84z" />
    <glyph glyph-name="afii10079" unicode="&#x43d;" horiz-adv-x="564" 
d="M184 513h63l-44 -220h278l44 220h63l-104 -513h-63l49 240h-278l-49 -240h-63z" />
    <glyph glyph-name="afii10080" unicode="&#x43e;" horiz-adv-x="561" 
d="M91 196q0 64 24 127.5t68 111.5q78 86 200 86q89 0 140 -53q52 -52 52 -153q0 -112 -60 -201q-83 -122 -235 -122q-88 0 -139 56q-50 59 -50 148zM157 192q0 -40 11.5 -70t26 -44t35 -22t31 -9.5t21.5 -1.5q108 0 174 97q53 75 53 175q0 68 -31 106q-36 45 -98 45
q-94 0 -159 -82q-64 -84 -64 -194z" />
    <glyph glyph-name="afii10081" unicode="&#x43f;" horiz-adv-x="554" 
d="M184 513h394l-104 -513h-63l94 460h-268l-94 -460h-63z" />
    <glyph glyph-name="afii10082" unicode="&#x440;" horiz-adv-x="567" 
d="M102 -219h-63l129 633l16 99h60l-21 -106h3q24 46 70 80t113 34q88 0 136 -61q37 -51 37 -132q0 -117 -61 -213q-43 -65 -98.5 -94t-111.5 -29q-59 0 -101 35q-30 27 -43 65h-3l-8 -49zM193 191q0 -68 32 -107t84 -39q99 0 160 106q47 82 47 172q0 61 -28 99
q-31 46 -92 46q-92 0 -154 -98q-49 -78 -49 -179z" />
    <glyph glyph-name="afii10083" unicode="&#x441;" horiz-adv-x="464" 
d="M532 501l-14 -56q-53 23 -111 23q-102 0 -171 -74q-76 -82 -76 -195q0 -72 41 -110q44 -44 124 -44q58 0 116 21l-5 -54q-57 -20 -119 -20q-125 0 -186 82q-37 53 -37 128q0 137 95 232q86 87 218 87q61 0 125 -20z" />
    <glyph glyph-name="afii10084" unicode="&#x442;" horiz-adv-x="403" 
d="M114 513h383l-10 -53h-160l-94 -460h-63l94 460h-160z" />
    <glyph glyph-name="afii10085" unicode="&#x443;" horiz-adv-x="494" 
d="M18 -211l17 56q33 -9 47 -9q17 0 31 6.5t26.5 20.5t19 23.5t17.5 29.5l36 67l-78 530h65l56 -392l5 -51h3l236 443h69l-347 -629q-28 -51 -60 -77.5t-82 -26.5q-27 0 -61 9z" />
    <glyph glyph-name="afii10086" unicode="&#x444;" horiz-adv-x="751" 
d="M549 700l-44 -219q53 40 113 40q64 0 107 -46q40 -45 40 -125q0 -70 -23 -146t-65 -128q-68 -84 -163 -84q-58 0 -100 40l-52 -251h-64l52 251q-48 -40 -111 -40q-68 0 -108 44q-40 45 -40 126q0 78 27 161.5t80 135.5q62 62 143 62q57 0 100 -41l44 220h64zM494 428
l-70 -344q37 -39 90 -39q72 0 122 74q28 40 45.5 102t17.5 118t-25 91q-30 38 -74 38q-60 0 -106 -40zM360 84l70 344q-40 40 -89 40q-40 0 -81.5 -30t-67.5 -93q-16 -35 -26 -87t-10 -91q0 -57 25 -88q27 -34 74 -34q59 0 105 39z" />
    <glyph glyph-name="afii10087" unicode="&#x445;" horiz-adv-x="498" 
d="M146 513h76l67 -149l18 -48h2l37 49l120 148h78l-205 -239l129 -274h-80l-78 185l-15 46h-2l-35 -46l-153 -185h-75l234 274z" />
    <glyph glyph-name="afii10088" unicode="&#x446;" horiz-adv-x="576" 
d="M184 513h63l-93 -460h266l93 460h63l-93 -460h79l-39 -191h-63l28 138h-408z" />
    <glyph glyph-name="afii10089" unicode="&#x447;" horiz-adv-x="506" 
d="M211 513l-31 -154q-3 -11 -3 -25q0 -38 24 -53q21 -14 96 -14q56 0 123 12l47 234h63l-104 -513h-63l46 226q-75 -12 -131 -12q-102 0 -139 34q-28 25 -28 65q0 19 4 36l33 164h63z" />
    <glyph glyph-name="afii10090" unicode="&#x448;" horiz-adv-x="793" 
d="M184 513h63l-93 -460h222l93 460h63l-93 -460h222l93 460h63l-104 -513h-633z" />
    <glyph glyph-name="afii10091" unicode="&#x449;" horiz-adv-x="811" 
d="M695 -138l28 138h-643l104 513h63l-93 -460h222l93 460h63l-93 -460h222l93 460h63l-93 -460h73l-39 -191h-63z" />
    <glyph glyph-name="afii10092" unicode="&#x44a;" horiz-adv-x="575" 
d="M100 460l10 53h204l-41 -202h152q67 0 105 -35q34 -32 34 -85q0 -92 -70 -147q-57 -44 -145 -44h-202l94 460h-141zM262 258l-41 -205h133q64 0 104 38q40 35 40 86q0 44 -31 64q-24 17 -72 17h-133z" />
    <glyph glyph-name="afii10093" unicode="&#x44b;" horiz-adv-x="678" 
d="M206 311h152q67 0 105 -35q34 -32 34 -85q0 -92 -70 -147q-57 -44 -145 -44h-202l104 513h63zM195 258l-41 -205h133q64 0 104 38q40 35 40 86q0 44 -31 64q-24 17 -72 17h-133zM639 513h63l-104 -513h-63z" />
    <glyph glyph-name="afii10094" unicode="&#x44c;" horiz-adv-x="508" 
d="M206 311h152q67 0 105 -35q34 -32 34 -85q0 -92 -70 -147q-57 -44 -145 -44h-202l104 513h63zM195 258l-41 -205h133q64 0 104 38q40 35 40 86q0 44 -31 64q-24 17 -72 17h-133z" />
    <glyph glyph-name="afii10095" unicode="&#x44d;" horiz-adv-x="462" 
d="M154 239l10 53h244q12 81 -33 131q-40 45 -118 45q-69 0 -134 -29l9 56q63 26 132 26q102 0 158 -54q53 -53 53 -144q0 -145 -94 -240q-90 -91 -225 -91q-64 0 -123 24l14 56q51 -27 117 -27q100 0 160 59q57 55 73 135h-243z" />
    <glyph glyph-name="afii10096" unicode="&#x44e;" horiz-adv-x="739" 
d="M202 289h81q26 98 99 164q74 68 182 68q96 0 147 -64q42 -51 42 -131q0 -146 -97 -248q-82 -86 -201 -86q-113 0 -160 85q-26 45 -26 115q0 23 3 44h-81l-48 -236h-63l104 513h63zM466 45q81 0 141 65q36 39 58 96.5t22 114.5q0 65 -35 105q-36 42 -100 42
q-83 0 -141 -65q-30 -33 -54.5 -87.5t-24.5 -120.5q0 -65 28 -101q37 -49 106 -49z" />
    <glyph glyph-name="afii10097" unicode="&#x44f;" horiz-adv-x="498" 
d="M522 513l-104 -513h-63l43 212h-113l-164 -212h-76l180 224q-46 7 -74 42q-22 30 -22 71q0 45 24 84.5t63 61.5q53 30 128 30h178zM449 460h-118q-55 0 -91 -28q-44 -34 -44 -87q0 -36 23 -57q26 -23 76 -23h114z" />
    <glyph glyph-name="afii10071" unicode="&#x451;" horiz-adv-x="509" 
d="M262 740h69l-17 -80h-69zM481 740h69l-17 -80h-69zM517 238h-362q-5 -28 -5 -50q0 -65 33 -103q35 -40 109 -40q85 0 154 33l-12 -58q-69 -28 -148 -28q-109 0 -160 67q-42 51 -42 141q0 133 82 227t200 94q79 0 122 -43q46 -45 46 -123q0 -33 -10 -83zM166 291h296
q9 38 9 65q0 53 -28 81q-31 31 -83 31q-78 0 -132 -59q-44 -51 -62 -118z" />
    <glyph glyph-name="afii10099" unicode="&#x452;" horiz-adv-x="594" 
d="M104 0l125 613h-84l9 45h84l21 104h63l-21 -104h212l-9 -45h-212l-21 -100l-24 -105h1q27 47 77 80q52 33 101 33q70 0 112 -42q38 -40 38 -123q0 -45 -14 -121q-27 -130 -57 -195q-36 -76 -93 -130q-50 -46 -110 -77l-23 45q67 36 105 76q60 63 90 185q37 155 37 212
t-27 86q-31 31 -81 31q-62 0 -113 -56q-50 -53 -62 -113l-61 -299h-63z" />
    <glyph glyph-name="afii10100" unicode="&#x453;" horiz-adv-x="395" 
d="M184 513h314l-10 -53h-251l-94 -460h-63zM376 756h94l-154 -133h-56z" />
    <glyph glyph-name="afii10101" unicode="&#x454;" horiz-adv-x="446" 
d="M524 501l-14 -56q-47 23 -107 23q-100 0 -163 -62q-48 -48 -68 -113h223l-11 -53h-224q-5 -25 -5 -44q0 -61 30 -100q42 -51 118 -51q78 0 130 21l-5 -56q-60 -18 -137 -18q-94 0 -149 58q-53 57 -53 147q0 83 39 155t98 114q78 55 171 55q73 0 127 -20z" />
    <glyph glyph-name="afii10102" unicode="&#x455;" horiz-adv-x="419" 
d="M452 494l-15 -50q-51 24 -116 24q-54 0 -85 -21q-38 -25 -38 -70q0 -28 19.5 -45t73.5 -40q53 -24 77 -48q32 -35 32 -84q0 -75 -64 -124q-55 -44 -149 -44q-74 0 -134 26l16 57q61 -30 125 -30q68 0 107 37q33 33 33 78q0 22 -12 39t-67 43q-61 27 -81 44q-42 34 -42 85
q0 32 17.5 65.5t47.5 53.5q47 31 126 31q72 0 129 -27z" />
    <glyph glyph-name="afii10103" unicode="&#x456;" horiz-adv-x="229" 
d="M187 513h63l-104 -513h-63zM231 740h69l-17 -80h-69z" />
    <glyph glyph-name="afii10104" unicode="&#x457;" horiz-adv-x="242" 
d="M156 740h66l-17 -80h-66zM323 740h66l-17 -80h-66zM194 513h63l-104 -513h-63z" />
    <glyph glyph-name="afii10105" unicode="&#x458;" horiz-adv-x="223" 
d="M247 513l-119 -587q-2 -12 -5.5 -24.5t-14 -36t-25 -40.5t-40.5 -30.5t-58 -13.5q-27 0 -58 9l11 51q24 -7 43 -7q66 0 83 86l120 593h63zM231 742h63l-16 -80h-63z" />
    <glyph glyph-name="afii10106" unicode="&#x459;" horiz-adv-x="820" 
d="M224 513h340l-41 -202h152q72 0 113 -43q26 -31 26 -72q0 -97 -70 -152q-52 -44 -132 -44h-215l94 460h-214l-34 -167q-7 -31 -14 -60.5t-9 -40.5q-21 -92 -47 -130q-48 -70 -129 -70q-21 0 -38 4l11 53q12 -4 28 -4q50 0 81 53q25 44 52 181zM512 258l-41 -205h133
q48 0 84 22q27 17 43 44t16 54q0 39 -23 62q-26 23 -79 23h-133z" />
    <glyph glyph-name="afii10107" unicode="&#x45a;" horiz-adv-x="845" 
d="M184 513h63l-41 -202h278l41 202h63l-41 -202h152q63 0 104 -36q36 -33 36 -83q0 -40 -19 -81t-52 -67q-52 -44 -132 -44h-215l52 258h-278l-52 -258h-63zM536 258l-41 -205h133q48 0 84 22q28 16 43.5 45.5t15.5 58.5q0 35 -23 56q-26 23 -79 23h-133z" />
    <glyph glyph-name="afii10108" unicode="&#x45b;" horiz-adv-x="588" 
d="M105 0l126 618h-85l9 45h85l20 99h63l-20 -99h226l-9 -45h-226l-22 -105l-25 -105h1q32 51 82 82q49 31 111 31q43 0 72.5 -12.5t43.5 -34t19.5 -42t5.5 -43.5q0 -25 -10 -75l-64 -314h-63l64 316q8 37 8 58q0 46 -26 70q-24 24 -73 24q-64 0 -115 -45q-55 -51 -74 -124
l-61 -299h-63z" />
    <glyph glyph-name="afii10109" unicode="&#x45c;" horiz-adv-x="494" 
d="M184 513h63l-46 -226h3l281 226h81l-302 -241l222 -272h-86l-202 254h-3l-52 -254h-63zM398 756h94l-154 -133h-56z" />
    <glyph glyph-name="afii10110" unicode="&#x45e;" horiz-adv-x="494" 
d="M18 -211l17 56q33 -9 47 -9q17 0 31 6.5t26.5 20.5t19 23.5t17.5 29.5l36 67l-78 530h65l56 -392l5 -51h3l236 443h69l-347 -629q-28 -51 -60 -77.5t-82 -26.5q-27 0 -61 9zM243 709l37 35q34 -57 101 -57q72 0 131 57l23 -35q-72 -78 -162 -78q-39 0 -70 18t-42.5 32.5
t-17.5 27.5z" />
    <glyph glyph-name="afii10193" unicode="&#x45f;" horiz-adv-x="555" 
d="M475 0h-166l-30 -148h-63l30 148h-166l104 513h63l-93 -460h269l93 460h63z" />
    <glyph glyph-name="afii10050" unicode="&#x490;" horiz-adv-x="469" 
d="M242 700h293l31 150h66l-42 -207h-293l-131 -643h-66z" />
    <glyph glyph-name="afii10098" unicode="&#x491;" horiz-adv-x="391" 
d="M184 513h244l21 100h57l-31 -153h-238l-94 -460h-63z" />
    <glyph glyph-name="endash" unicode="&#x2013;" horiz-adv-x="640" 
d="M130 293l11 56h500l-11 -56h-500z" />
    <glyph glyph-name="emdash" unicode="&#x2014;" horiz-adv-x="756" 
d="M130 293l11 56h616l-11 -56h-616z" />
    <glyph glyph-name="quoteleft" unicode="&#x2018;" horiz-adv-x="303" 
d="M296 700h69l-99 -218h-88z" />
    <glyph glyph-name="quoteright" unicode="&#x2019;" horiz-adv-x="243" 
d="M247 700h88l-118 -218h-69z" />
    <glyph glyph-name="quotesinglbase" unicode="&#x201a;" horiz-adv-x="313" 
d="M158 89h88l-118 -218h-69z" />
    <glyph glyph-name="quotedblleft" unicode="&#x201c;" horiz-adv-x="416" 
d="M439 700h69l-99 -218h-88zM266 700h69l-99 -218h-88z" />
    <glyph glyph-name="quotedblright" unicode="&#x201d;" horiz-adv-x="416" 
d="M247 700h88l-118 -218h-69zM420 700h88l-118 -218h-69z" />
    <glyph glyph-name="quotedblbase" unicode="&#x201e;" horiz-adv-x="416" 
d="M123 89h88l-118 -218h-69zM296 89h88l-118 -218h-69z" />
    <glyph glyph-name="dagger" unicode="&#x2020;" horiz-adv-x="650" 
d="M434 700h66l-55 -272h242l-13 -66h-242l-119 -581h-66l119 581h-242l13 66h242z" />
    <glyph glyph-name="daggerdbl" unicode="&#x2021;" horiz-adv-x="650" 
d="M434 700h66l-55 -272h242l-13 -66h-242l-50 -243h242l-13 -66h-242l-56 -272h-66l56 272h-242l13 66h242l50 243h-242l13 66h242z" />
    <glyph glyph-name="bullet" unicode="&#x2022;" horiz-adv-x="380" 
d="M143 357q0 49 35.5 84.5t84.5 35.5t84.5 -35.5t35.5 -84.5t-35.5 -84.5t-84.5 -35.5t-84.5 35.5t-35.5 84.5z" />
    <glyph glyph-name="ellipsis" unicode="&#x2026;" horiz-adv-x="546" 
d="M67 86h82l-17 -86h-82zM249 86h82l-17 -86h-82zM431 86h82l-17 -86h-82z" />
    <glyph glyph-name="perthousand" unicode="&#x2030;" horiz-adv-x="1292" 
d="M1049 -6q-64 0 -99 41q-33 37 -33 100q0 101 68 174q56 59 142 59q69 0 104 -46q29 -37 29 -92q0 -86 -51 -153q-62 -83 -160 -83zM986 181q-6 -34 -6 -50q0 -38 15 -60q20 -27 64 -27q53 0 90 40q23 26 35.5 67t12.5 78q0 39 -18 62q-22 27 -61 27q-54 0 -90 -40
q-27 -28 -42 -97zM155 27l629 679l33 -33l-628 -679zM256 332q-64 0 -99 41q-33 37 -33 100q0 101 68 174q56 59 142 59q69 0 104 -46q29 -37 29 -92q0 -86 -51 -153q-62 -83 -160 -83zM193 519q-6 -34 -6 -50q0 -38 15 -60q20 -27 64 -27q53 0 90 40q23 26 35.5 67t12.5 78
q0 39 -18 62q-22 27 -61 27q-54 0 -90 -40q-27 -28 -42 -97zM640 -6q-64 0 -99 41q-33 37 -33 100q0 101 68 174q56 59 142 59q69 0 104 -46q29 -37 29 -92q0 -86 -51 -153q-62 -83 -160 -83zM577 181q-6 -34 -6 -50q0 -38 15 -60q20 -27 64 -27q53 0 90 40q23 26 35.5 67
t12.5 78q0 39 -18 62q-22 27 -61 27q-54 0 -90 -40q-27 -28 -42 -97z" />
    <glyph glyph-name="guilsinglleft" unicode="&#x2039;" horiz-adv-x="325" 
d="M182 306l89 -207h-55l-98 207l171 207h60z" />
    <glyph glyph-name="guilsinglright" unicode="&#x203a;" horiz-adv-x="291" 
d="M231 306l-131 207h57l140 -207l-140 -207h-57z" />
    <glyph glyph-name="Euro" unicode="&#x20ac;" 
d="M709 652l-15 -71q-54 65 -163 65q-94 0 -160.5 -57t-96.5 -144h342l-31 -54h-330q-1 -6 -4.5 -20l-4.5 -18q-4 -20 -6 -40h299l-32 -54h-270q-5 -96 39.5 -150.5t135.5 -54.5q103 0 188 65l-14 -71q-29 -23 -81 -39t-113 -16q-115 0 -172.5 67t-50.5 199h-77l32 54h50
q2 19 7 40q6 28 9 38h-71l32 54h55q43 118 126 190.5t206 72.5q59 0 103.5 -16.5t67.5 -39.5z" />
    <glyph glyph-name="afii61352" unicode="&#x2116;" horiz-adv-x="1105" 
d="M242 700h85l226 -566l18 -64h2l126 630h66l-142 -700h-85l-223 555l-22 75h-3l-12 -81l-112 -549h-66zM830 390q0 88 56 145q49 49 118 49q55 0 86 -35q27 -33 27 -88q0 -71 -44 -126q-53 -65 -128 -65q-54 0 -84 33q-31 33 -31 87zM889 427q-6 -25 -6 -51q0 -9 2 -17.5
t7.5 -21t20.5 -20.5t37 -8q46 0 74 35q18 22 29 60t11 67q0 33 -12 49q-17 25 -54 25q-46 0 -74 -35q-20 -25 -35 -83zM778 107h262l-13 -57h-261z" />
    <glyph glyph-name="trademark" unicode="&#x2122;" horiz-adv-x="923" 
d="M141 700h292l-9 -44h-122l-76 -376h-48l76 376h-122zM492 700h76l72 -335l2 -50h1l22 50l208 335h74l-85 -420h-48l66 325l17 57h-2l-33 -56l-206 -326h-43l-72 329l-8 53h-2l-10 -57l-66 -325h-48z" />
    <glyph glyph-name="Acute" unicode="&#xf6c9;" horiz-adv-x="395" 
d="M360 871h112l-147 -123h-73z" />
    <glyph glyph-name="Dieresis" unicode="&#xf6cb;" horiz-adv-x="498" 
d="M272 844h69l-17 -80h-69zM501 844h69l-17 -80h-69z" />
    <glyph glyph-name="cyrBreve" unicode="&#xf6d1;" horiz-adv-x="495" 
d="M268 828l38 38q13 -21 34 -36q28 -21 71 -21q35 0 67 15q29 14 57 40l28 -34q-27 -35 -68 -56q-43 -24 -96 -24q-46 0 -81 23q-29 18 -50 55z" />
    <glyph glyph-name="cyrbreve" unicode="&#xf6d4;" horiz-adv-x="452" 
d="M224 709l37 35q34 -57 101 -57q72 0 131 57l23 -35q-72 -78 -162 -78q-39 0 -70 18t-42.5 32.5t-17.5 27.5z" />
    <glyph glyph-name="hyphenminus" horiz-adv-x="420" 
d="M160 293h220l-11 -53h-220z" />
    <glyph glyph-name="accent" horiz-adv-x="2" 
d="M-339 756h94l-154 -133h-56z" />
    <glyph glyph-name="Accent" horiz-adv-x="2" 
d="M-347 871h112l-147 -123h-73z" />
    <glyph glyph-name="nbspace" horiz-adv-x="233" 
 />
    </font>
</defs>
</svg>
